M48
;Layer_Color=9474304
;FILE_FORMAT=2:5
INCH,LZ
;TYPE=PLATED
T1F00S00C0.01500
T3F00S00C0.02480
T4F00S00C0.03150
T6F00S00C0.03543
T7F00S00C0.03937
;TYPE=NON_PLATED
T8F00S00C0.03150
%
T01
X0052Y00285
X0064222Y0029
X0068Y0027
X00885Y00135
X0088Y0052
X00805Y0054
X0103Y00415
X0139697Y0041677
X0143697
Y0045677
Y0049677
Y0053677
X0139697
Y0049677
Y0045677
X0119Y00635
X0118Y00755
Y008
X01165Y00875
X0117Y0105
X0116697Y0112677
Y0116677
Y0120677
Y0124677
Y0128677
Y0132677
Y0136677
Y0140677
X0112697
Y0136677
Y0132677
Y0128677
Y0124677
Y0120677
Y0116677
Y0112677
X0095Y00995
X0093Y00945
X0095031Y0073857
X0073Y0078
X00605
X0032Y0068
X00365Y01115
X0023Y0111
X0019197Y0118677
Y0122677
Y0126677
Y0130677
Y0134677
Y0138677
Y0142677
Y0146677
X0015197
Y0142677
Y0138677
Y0134677
Y0130677
Y0126677
Y0122677
Y0118677
X0052Y012
T03
X00225Y00135
Y0023343
T04
X00215Y0081
Y0091
Y0101
T06
X00065Y0007
Y0017
Y0027
X0111Y0007
X0121
X0131
X0141
X01395Y007
Y008
Y009
Y01
X014Y01475
X013
X012
X00065Y00995
Y00895
Y00795
T07
X00085Y01385
Y01485
T08
X0057657Y0016284
X0077342
M30
