G04*
G04 #@! TF.GenerationSoftware,Altium Limited,Altium Designer,20.1.12 (249)*
G04*
G04 Layer_Color=65535*
%FSLAX25Y25*%
%MOIN*%
G70*
G04*
G04 #@! TF.SameCoordinates,74860364-7C4C-4BB1-8EB4-A47DF166201D*
G04*
G04*
G04 #@! TF.FilePolarity,Positive*
G04*
G01*
G75*
%ADD10C,0.00500*%
%ADD11C,0.00984*%
%ADD12C,0.00787*%
%ADD13C,0.00591*%
%ADD14C,0.01000*%
%ADD15C,0.00394*%
%ADD16C,0.00600*%
D10*
X37567Y124004D02*
G03*
X37567Y124004I-984J0D01*
G01*
X30240Y139000D02*
G03*
X30240Y139000I-3740J0D01*
G01*
X22437Y31415D02*
G03*
X14625Y23870I-134J-7678D01*
G01*
Y12972D02*
G03*
X22437Y5428I7678J134D01*
G01*
X22563D02*
G03*
X30375Y12972I134J7678D01*
G01*
Y23870D02*
G03*
X22563Y31415I-7678J-134D01*
G01*
X28240Y54000D02*
G03*
X28240Y54000I-3740J0D01*
G01*
X49378Y123472D02*
X96622D01*
Y64417D02*
Y123472D01*
X49378Y64417D02*
X96622D01*
X49378D02*
Y123472D01*
X41504Y124496D02*
Y154024D01*
X104496D01*
Y124496D02*
Y154024D01*
X41504Y59535D02*
Y61504D01*
Y59535D02*
X49378D01*
X104496D02*
Y61504D01*
X96622Y59535D02*
X104496D01*
X33980Y127189D02*
Y150811D01*
X19020Y127189D02*
Y150811D01*
X30240Y127189D02*
X33980D01*
X19020D02*
X22760D01*
X30240Y150811D02*
X33980D01*
X19020D02*
X22760D01*
X14626Y12910D02*
Y23933D01*
X30374Y12910D02*
Y23933D01*
X28240Y42189D02*
X31980D01*
X17020D02*
X20760D01*
X28240Y65811D02*
X31980D01*
X17020D02*
X20760D01*
X31980Y42189D02*
Y65811D01*
X17020Y42189D02*
Y65811D01*
D11*
X91787Y50189D02*
G03*
X91787Y50189I-492J0D01*
G01*
D12*
X12524Y136962D02*
G03*
X13929Y148929I-4024J6538D01*
G01*
X2819Y148664D02*
G03*
X4476Y136962I5681J-5164D01*
G01*
X146000Y2000D02*
Y12000D01*
X106000Y2000D02*
X146000D01*
X106000Y12000D02*
X146000D01*
X106000Y2000D02*
Y12000D01*
X145000Y142500D02*
Y152500D01*
X115000Y142500D02*
X145000D01*
X115000D02*
Y152500D01*
X145000D01*
X134500Y65000D02*
X144500D01*
X134500D02*
Y105000D01*
X144500Y65000D02*
Y105000D01*
X134500D02*
X144500D01*
X94909Y9748D02*
X96091D01*
X94909Y3252D02*
X96091D01*
X94909D02*
Y9748D01*
X74783Y21992D02*
X78130D01*
X83248Y10181D02*
Y15496D01*
X51752Y10181D02*
Y15496D01*
X56870Y21992D02*
X60216D01*
X96807Y23811D02*
Y50189D01*
X110193Y23811D02*
Y50189D01*
X96807D02*
X110193D01*
X96807Y23811D02*
X110193D01*
X130409Y20752D02*
Y27248D01*
Y20752D02*
X131591D01*
X130409Y27248D02*
X131591D01*
X1500Y2000D02*
Y32000D01*
Y2000D02*
X11500D01*
Y32000D01*
X1500D02*
X11500D01*
X2819Y148664D02*
X3155Y149000D01*
X12500D02*
X13929D01*
X3155D02*
X4500D01*
X11500Y74500D02*
Y104500D01*
X1500D02*
X11500D01*
X1500Y74500D02*
Y104500D01*
Y74500D02*
X11500D01*
D13*
X110425Y68510D02*
Y69490D01*
X113575Y68510D02*
Y69490D01*
X113575Y97509D02*
Y98491D01*
X110425Y97509D02*
Y98491D01*
X110425Y83009D02*
Y83991D01*
X113575Y83009D02*
Y83991D01*
X33075Y115009D02*
Y115991D01*
X29925Y115009D02*
Y115991D01*
X29925Y100510D02*
Y101490D01*
X33075Y100510D02*
Y101490D01*
X38878Y49396D02*
Y50596D01*
X36122Y49409D02*
Y50583D01*
X38413Y22878D02*
X39587D01*
X38400Y20122D02*
X39600D01*
X8509Y67075D02*
X9491D01*
X8509Y63925D02*
X9491D01*
X6425Y124509D02*
Y125491D01*
X9575Y124509D02*
Y125491D01*
X37913Y10378D02*
X39087D01*
X37900Y7622D02*
X39100D01*
X94913Y13122D02*
X96087D01*
X94900Y15878D02*
X96100D01*
X130413Y31122D02*
X131587D01*
X130400Y33878D02*
X131600D01*
X86445Y989D02*
X83821D01*
X85133Y-323D02*
Y2301D01*
X120500Y29532D02*
X117876D01*
X119188Y28220D02*
Y30844D01*
D14*
X18500Y106500D02*
X27500D01*
Y75500D02*
Y106500D01*
X13500Y101500D02*
X18500Y106500D01*
X13500Y80000D02*
Y101500D01*
Y80000D02*
X18000Y75500D01*
X27500D01*
X0Y0D02*
X148000D01*
Y154500D01*
X0D02*
X148000D01*
X0Y0D02*
Y154500D01*
D15*
X126000Y125149D02*
Y123049D01*
X127050Y122000D01*
X128099Y123049D01*
Y125149D01*
X131248D02*
X129149D01*
Y122000D01*
X131248D01*
X129149Y123574D02*
X130198D01*
X132297Y122000D02*
Y125149D01*
X133871D01*
X134396Y124624D01*
Y123574D01*
X133871Y123049D01*
X132297D01*
X133347D02*
X134396Y122000D01*
X138594D02*
X139644D01*
X139119D01*
Y125149D01*
X138594Y124624D01*
X141218Y122000D02*
Y122525D01*
X141743D01*
Y122000D01*
X141218D01*
X143842Y124624D02*
X144367Y125149D01*
X145416D01*
X145941Y124624D01*
Y122525D01*
X145416Y122000D01*
X144367D01*
X143842Y122525D01*
Y124624D01*
X112599Y131649D02*
X110500D01*
Y128500D01*
X112599D01*
X110500Y130074D02*
X111549D01*
X114173Y130599D02*
X115223D01*
X115748Y130074D01*
Y128500D01*
X114173D01*
X113649Y129025D01*
X114173Y129550D01*
X115748D01*
X116797Y128500D02*
X118371D01*
X118896Y129025D01*
X118371Y129550D01*
X117322D01*
X116797Y130074D01*
X117322Y130599D01*
X118896D01*
X119946D02*
Y129025D01*
X120470Y128500D01*
X122045D01*
Y127975D01*
X121520Y127451D01*
X120995D01*
X122045Y128500D02*
Y130599D01*
X123094Y131649D02*
X124144D01*
X123619D01*
Y128500D01*
X123094D01*
X124144D01*
X126243D02*
X127293D01*
X127817Y129025D01*
Y130074D01*
X127293Y130599D01*
X126243D01*
X125718Y130074D01*
Y129025D01*
X126243Y128500D01*
X128867Y131649D02*
X130966D01*
X129916D01*
Y128500D01*
X135164D02*
Y131649D01*
X136738D01*
X137263Y131124D01*
Y130074D01*
X136738Y129550D01*
X135164D01*
X138313Y128500D02*
X139362D01*
X138837D01*
Y130599D01*
X138313D01*
X143035Y131124D02*
X142511Y131649D01*
X141461D01*
X140936Y131124D01*
Y129025D01*
X141461Y128500D01*
X142511D01*
X143035Y129025D01*
X144610Y128500D02*
X145659D01*
X146184Y129025D01*
Y130074D01*
X145659Y130599D01*
X144610D01*
X144085Y130074D01*
Y129025D01*
X144610Y128500D01*
X2500Y72149D02*
Y69000D01*
X4074D01*
X4599Y69525D01*
Y71624D01*
X4074Y72149D01*
X2500D01*
X5649D02*
Y69000D01*
Y70574D01*
X7748D01*
Y72149D01*
Y69000D01*
X8797Y72149D02*
X10896D01*
X9847D01*
Y69000D01*
X2500Y109649D02*
Y106500D01*
X4599D01*
X7748Y109649D02*
X5649D01*
Y106500D01*
X7748D01*
X5649Y108074D02*
X6698D01*
X8797Y109649D02*
Y106500D01*
X10372D01*
X10896Y107025D01*
Y109124D01*
X10372Y109649D01*
X8797D01*
X4599Y37624D02*
X4074Y38149D01*
X3025D01*
X2500Y37624D01*
Y35525D01*
X3025Y35000D01*
X4074D01*
X4599Y35525D01*
Y36574D01*
X3550D01*
X5649Y35000D02*
Y38149D01*
X7748Y35000D01*
Y38149D01*
X8797D02*
Y35000D01*
X10372D01*
X10896Y35525D01*
Y37624D01*
X10372Y38149D01*
X8797D01*
X13500Y3124D02*
X14025Y3649D01*
X15074D01*
X15599Y3124D01*
Y2599D01*
X15074Y2074D01*
X14549D01*
X15074D01*
X15599Y1550D01*
Y1025D01*
X15074Y500D01*
X14025D01*
X13500Y1025D01*
X16649Y500D02*
Y1025D01*
X17173D01*
Y500D01*
X16649D01*
X19272Y3124D02*
X19797Y3649D01*
X20847D01*
X21372Y3124D01*
Y2599D01*
X20847Y2074D01*
X20322D01*
X20847D01*
X21372Y1550D01*
Y1025D01*
X20847Y500D01*
X19797D01*
X19272Y1025D01*
X22421Y3649D02*
Y1550D01*
X23471Y500D01*
X24520Y1550D01*
Y3649D01*
X118571Y17360D02*
X118046Y17884D01*
X116996D01*
X116472Y17360D01*
Y16835D01*
X116996Y16310D01*
X118046D01*
X118571Y15785D01*
Y15260D01*
X118046Y14736D01*
X116996D01*
X116472Y15260D01*
X119620Y14736D02*
Y17884D01*
X121195D01*
X121719Y17360D01*
Y16310D01*
X121195Y15785D01*
X119620D01*
X120670D02*
X121719Y14736D01*
X122769Y17884D02*
X124868Y14736D01*
Y17884D02*
X122769Y14736D01*
X128571Y17360D02*
X128046Y17884D01*
X126996D01*
X126472Y17360D01*
Y16835D01*
X126996Y16310D01*
X128046D01*
X128571Y15785D01*
Y15260D01*
X128046Y14736D01*
X126996D01*
X126472Y15260D01*
X129620Y17884D02*
X131719D01*
X130670D01*
Y14736D01*
X132769Y17884D02*
X134868Y14736D01*
Y17884D02*
X132769Y14736D01*
X108599Y17624D02*
X108074Y18149D01*
X107025D01*
X106500Y17624D01*
Y15525D01*
X107025Y15000D01*
X108074D01*
X108599Y15525D01*
Y16574D01*
X107550D01*
X109649Y15000D02*
Y18149D01*
X111748Y15000D01*
Y18149D01*
X112797D02*
Y15000D01*
X114372D01*
X114896Y15525D01*
Y17624D01*
X114372Y18149D01*
X112797D01*
X137000Y17624D02*
X137525Y18149D01*
X138574D01*
X139099Y17624D01*
Y17099D01*
X138574Y16574D01*
X138049D01*
X138574D01*
X139099Y16049D01*
Y15525D01*
X138574Y15000D01*
X137525D01*
X137000Y15525D01*
X140149Y15000D02*
Y15525D01*
X140673D01*
Y15000D01*
X140149D01*
X142772Y17624D02*
X143297Y18149D01*
X144347D01*
X144871Y17624D01*
Y17099D01*
X144347Y16574D01*
X143822D01*
X144347D01*
X144871Y16049D01*
Y15525D01*
X144347Y15000D01*
X143297D01*
X142772Y15525D01*
X145921Y18149D02*
Y16049D01*
X146970Y15000D01*
X148020Y16049D01*
Y18149D01*
X125000Y139649D02*
Y136500D01*
X126574D01*
X127099Y137025D01*
Y139124D01*
X126574Y139649D01*
X125000D01*
X128149D02*
X130248D01*
X129198D01*
Y136500D01*
X131297Y139649D02*
X133396Y136500D01*
Y139649D02*
X131297Y136500D01*
X136385Y138879D02*
X136910Y139404D01*
X137959D01*
X138484Y138879D01*
Y138355D01*
X137959Y137830D01*
X137434D01*
X137959D01*
X138484Y137305D01*
Y136780D01*
X137959Y136255D01*
X136910D01*
X136385Y136780D01*
X139533Y136255D02*
Y136780D01*
X140058D01*
Y136255D01*
X139533D01*
X142157Y138879D02*
X142682Y139404D01*
X143732D01*
X144256Y138879D01*
Y138355D01*
X143732Y137830D01*
X143207D01*
X143732D01*
X144256Y137305D01*
Y136780D01*
X143732Y136255D01*
X142682D01*
X142157Y136780D01*
X145306Y139404D02*
Y137305D01*
X146355Y136255D01*
X147405Y137305D01*
Y139404D01*
X115099Y138624D02*
X114574Y139149D01*
X113525D01*
X113000Y138624D01*
Y136525D01*
X113525Y136000D01*
X114574D01*
X115099Y136525D01*
Y137574D01*
X114049D01*
X116149Y136000D02*
Y139149D01*
X118248Y136000D01*
Y139149D01*
X119297D02*
Y136000D01*
X120871D01*
X121396Y136525D01*
Y138624D01*
X120871Y139149D01*
X119297D01*
X125099Y70624D02*
X124574Y71149D01*
X123525D01*
X123000Y70624D01*
Y70099D01*
X123525Y69574D01*
X124574D01*
X125099Y69050D01*
Y68525D01*
X124574Y68000D01*
X123525D01*
X123000Y68525D01*
X126149Y71149D02*
Y68000D01*
X127723D01*
X128248Y68525D01*
Y70624D01*
X127723Y71149D01*
X126149D01*
X129297Y68000D02*
Y70099D01*
X130347Y71149D01*
X131396Y70099D01*
Y68000D01*
Y69574D01*
X129297D01*
X126099Y80124D02*
X125574Y80649D01*
X124525D01*
X124000Y80124D01*
Y79599D01*
X124525Y79074D01*
X125574D01*
X126099Y78549D01*
Y78025D01*
X125574Y77500D01*
X124525D01*
X124000Y78025D01*
X129248Y80124D02*
X128723Y80649D01*
X127673D01*
X127149Y80124D01*
Y78025D01*
X127673Y77500D01*
X128723D01*
X129248Y78025D01*
X130297Y80649D02*
Y77500D01*
X132396D01*
X121000Y90624D02*
X121525Y91149D01*
X122574D01*
X123099Y90624D01*
Y90099D01*
X122574Y89574D01*
X122049D01*
X122574D01*
X123099Y89050D01*
Y88525D01*
X122574Y88000D01*
X121525D01*
X121000Y88525D01*
X124149Y88000D02*
Y88525D01*
X124673D01*
Y88000D01*
X124149D01*
X126772Y90624D02*
X127297Y91149D01*
X128347D01*
X128872Y90624D01*
Y90099D01*
X128347Y89574D01*
X127822D01*
X128347D01*
X128872Y89050D01*
Y88525D01*
X128347Y88000D01*
X127297D01*
X126772Y88525D01*
X129921Y91149D02*
Y89050D01*
X130971Y88000D01*
X132020Y89050D01*
Y91149D01*
X125099Y101124D02*
X124574Y101649D01*
X123525D01*
X123000Y101124D01*
Y99025D01*
X123525Y98500D01*
X124574D01*
X125099Y99025D01*
Y100074D01*
X124049D01*
X126149Y98500D02*
Y101649D01*
X128248Y98500D01*
Y101649D01*
X129297D02*
Y98500D01*
X130871D01*
X131396Y99025D01*
Y101124D01*
X130871Y101649D01*
X129297D01*
X110401Y119574D02*
Y116951D01*
X110926Y116426D01*
X111975D01*
X112500Y116951D01*
Y119574D01*
X113549Y116426D02*
X114599D01*
X114074D01*
Y119574D01*
X113549Y119050D01*
X30401Y33074D02*
X32500Y29926D01*
Y33074D02*
X30401Y29926D01*
X33549D02*
X34599D01*
X34074D01*
Y33074D01*
X33549Y32550D01*
X14876Y111574D02*
Y108950D01*
X15401Y108426D01*
X16451D01*
X16975Y108950D01*
Y111574D01*
X19599Y108426D02*
Y111574D01*
X18025Y110000D01*
X20124D01*
X113876Y52574D02*
Y49951D01*
X114401Y49426D01*
X115451D01*
X115975Y49951D01*
Y52574D01*
X119124Y49426D02*
X117025D01*
X119124Y51525D01*
Y52049D01*
X118599Y52574D01*
X117550D01*
X117025Y52049D01*
X8901Y53049D02*
X8376Y53574D01*
X7327D01*
X6802Y53049D01*
Y52525D01*
X7327Y52000D01*
X8376D01*
X8901Y51475D01*
Y50950D01*
X8376Y50426D01*
X7327D01*
X6802Y50950D01*
X9950Y53574D02*
Y50426D01*
X11000Y51475D01*
X12049Y50426D01*
Y53574D01*
X15198Y50426D02*
X13099D01*
X15198Y52525D01*
Y53049D01*
X14673Y53574D01*
X13624D01*
X13099Y53049D01*
X19426Y121049D02*
X18901Y121574D01*
X17851D01*
X17327Y121049D01*
Y120525D01*
X17851Y120000D01*
X18901D01*
X19426Y119475D01*
Y118950D01*
X18901Y118426D01*
X17851D01*
X17327Y118950D01*
X20475Y121574D02*
Y118426D01*
X21525Y119475D01*
X22574Y118426D01*
Y121574D01*
X23624Y118426D02*
X24673D01*
X24149D01*
Y121574D01*
X23624Y121049D01*
X4089Y57426D02*
Y60574D01*
X5663D01*
X6188Y60049D01*
Y59000D01*
X5663Y58475D01*
X4089D01*
X5139D02*
X6188Y57426D01*
X7238D02*
X8287D01*
X7762D01*
Y60574D01*
X7238Y60049D01*
X9861Y57426D02*
X10911D01*
X10386D01*
Y60574D01*
X9861Y60049D01*
X2064Y130926D02*
Y134074D01*
X3639D01*
X4163Y133549D01*
Y132500D01*
X3639Y131975D01*
X2064D01*
X3114D02*
X4163Y130926D01*
X5213D02*
X6262D01*
X5738D01*
Y134074D01*
X5213Y133549D01*
X7837D02*
X8361Y134074D01*
X9411D01*
X9936Y133549D01*
Y131450D01*
X9411Y130926D01*
X8361D01*
X7837Y131450D01*
Y133549D01*
X109376Y57426D02*
Y60574D01*
X110951D01*
X111475Y60049D01*
Y59000D01*
X110951Y58475D01*
X109376D01*
X110426D02*
X111475Y57426D01*
X112525Y60574D02*
X114624D01*
Y60049D01*
X112525Y57951D01*
Y57426D01*
X109876Y106426D02*
Y109574D01*
X111451D01*
X111975Y109049D01*
Y108000D01*
X111451Y107475D01*
X109876D01*
X110926D02*
X111975Y106426D01*
X115124Y109574D02*
X114074Y109049D01*
X113025Y108000D01*
Y106950D01*
X113549Y106426D01*
X114599D01*
X115124Y106950D01*
Y107475D01*
X114599Y108000D01*
X113025D01*
X115876Y81926D02*
Y85074D01*
X117450D01*
X117975Y84549D01*
Y83500D01*
X117450Y82975D01*
X115876D01*
X116926D02*
X117975Y81926D01*
X121124Y85074D02*
X119025D01*
Y83500D01*
X120074Y84025D01*
X120599D01*
X121124Y83500D01*
Y82450D01*
X120599Y81926D01*
X119550D01*
X119025Y82450D01*
X22376Y112426D02*
Y115574D01*
X23950D01*
X24475Y115050D01*
Y114000D01*
X23950Y113475D01*
X22376D01*
X23426D02*
X24475Y112426D01*
X27624D02*
X25525D01*
X27624Y114525D01*
Y115050D01*
X27099Y115574D01*
X26050D01*
X25525Y115050D01*
X23325Y96650D02*
X20177D01*
Y98224D01*
X20701Y98749D01*
X21751D01*
X22276Y98224D01*
Y96650D01*
Y97699D02*
X23325Y98749D01*
Y99798D02*
Y100848D01*
Y100323D01*
X20177D01*
X20701Y99798D01*
X140876Y21426D02*
Y24574D01*
X142450D01*
X142975Y24049D01*
Y23000D01*
X142450Y22475D01*
X140876D01*
X146124Y24574D02*
X144025D01*
Y23000D01*
X145074Y23525D01*
X145599D01*
X146124Y23000D01*
Y21950D01*
X145599Y21426D01*
X144550D01*
X144025Y21950D01*
X107876Y145426D02*
Y148574D01*
X109450D01*
X109975Y148049D01*
Y147000D01*
X109450Y146475D01*
X107876D01*
X112599Y145426D02*
Y148574D01*
X111025Y147000D01*
X113124D01*
X2876Y112926D02*
Y116074D01*
X4451D01*
X4975Y115550D01*
Y114500D01*
X4451Y113975D01*
X2876D01*
X6025Y115550D02*
X6549Y116074D01*
X7599D01*
X8124Y115550D01*
Y115025D01*
X7599Y114500D01*
X7074D01*
X7599D01*
X8124Y113975D01*
Y113451D01*
X7599Y112926D01*
X6549D01*
X6025Y113451D01*
X653Y41426D02*
Y44574D01*
X2228D01*
X2752Y44050D01*
Y43000D01*
X2228Y42475D01*
X653D01*
X5901Y41426D02*
X3802D01*
X5901Y43525D01*
Y44050D01*
X5376Y44574D01*
X4327D01*
X3802Y44050D01*
X6950Y44574D02*
Y41426D01*
X8525D01*
X9049Y41951D01*
Y44050D01*
X8525Y44574D01*
X6950D01*
X10099D02*
Y41426D01*
Y43000D01*
X12198D01*
Y44574D01*
Y41426D01*
X13248Y44574D02*
X15347D01*
X14297D01*
Y41426D01*
X137901Y57426D02*
Y60574D01*
X139475D01*
X140000Y60049D01*
Y59000D01*
X139475Y58475D01*
X137901D01*
X141050Y57426D02*
X142099D01*
X141574D01*
Y60574D01*
X141050Y60049D01*
X13623Y125429D02*
X16771D01*
Y127529D01*
X13623Y130677D02*
Y128578D01*
X16771D01*
Y130677D01*
X15197Y128578D02*
Y129628D01*
X13623Y131727D02*
X16771D01*
Y133301D01*
X16246Y133826D01*
X14147D01*
X13623Y133301D01*
Y131727D01*
X16771Y134875D02*
Y135925D01*
Y135400D01*
X13623D01*
X14147Y134875D01*
X58500Y29074D02*
X57450D01*
X57975D01*
Y26450D01*
X57450Y25926D01*
X56926D01*
X56401Y26450D01*
X59549Y25926D02*
X60599D01*
X60074D01*
Y29074D01*
X59549Y28550D01*
X33663Y4050D02*
X33139Y4574D01*
X32089D01*
X31564Y4050D01*
Y1950D01*
X32089Y1426D01*
X33139D01*
X33663Y1950D01*
X34713Y1426D02*
X35762D01*
X35238D01*
Y4574D01*
X34713Y4050D01*
X37337D02*
X37861Y4574D01*
X38911D01*
X39436Y4050D01*
Y1950D01*
X38911Y1426D01*
X37861D01*
X37337Y1950D01*
Y4050D01*
X41975Y29050D02*
X41451Y29574D01*
X40401D01*
X39876Y29050D01*
Y26950D01*
X40401Y26426D01*
X41451D01*
X41975Y26950D01*
X43025D02*
X43549Y26426D01*
X44599D01*
X45124Y26950D01*
Y29050D01*
X44599Y29574D01*
X43549D01*
X43025Y29050D01*
Y28525D01*
X43549Y28000D01*
X45124D01*
X101451Y14475D02*
X100926Y13950D01*
Y12901D01*
X101451Y12376D01*
X103550D01*
X104074Y12901D01*
Y13950D01*
X103550Y14475D01*
X100926Y17624D02*
Y15525D01*
X102500D01*
X101975Y16574D01*
Y17099D01*
X102500Y17624D01*
X103550D01*
X104074Y17099D01*
Y16049D01*
X103550Y15525D01*
X117475Y24550D02*
X116951Y25074D01*
X115901D01*
X115376Y24550D01*
Y22451D01*
X115901Y21926D01*
X116951D01*
X117475Y22451D01*
X120099Y21926D02*
Y25074D01*
X118525Y23500D01*
X120624D01*
X91475Y21049D02*
X90951Y21574D01*
X89901D01*
X89376Y21049D01*
Y18950D01*
X89901Y18426D01*
X90951D01*
X91475Y18950D01*
X92525Y21049D02*
X93050Y21574D01*
X94099D01*
X94624Y21049D01*
Y20525D01*
X94099Y20000D01*
X93574D01*
X94099D01*
X94624Y19475D01*
Y18950D01*
X94099Y18426D01*
X93050D01*
X92525Y18950D01*
X128975Y40049D02*
X128451Y40574D01*
X127401D01*
X126876Y40049D01*
Y37951D01*
X127401Y37426D01*
X128451D01*
X128975Y37951D01*
X132124Y37426D02*
X130025D01*
X132124Y39525D01*
Y40049D01*
X131599Y40574D01*
X130550D01*
X130025Y40049D01*
X38000Y41050D02*
X37475Y41574D01*
X36426D01*
X35901Y41050D01*
Y38950D01*
X36426Y38426D01*
X37475D01*
X38000Y38950D01*
X39050Y38426D02*
X40099D01*
X39574D01*
Y41574D01*
X39050Y41050D01*
D16*
X12501Y151000D02*
X15500D01*
X14500D01*
X12501Y152999D01*
X14001Y151500D01*
X15500Y152999D01*
M02*
