G04*
G04 #@! TF.GenerationSoftware,Altium Limited,Altium Designer,20.1.12 (249)*
G04*
G04 Layer_Color=2752767*
%FSLAX25Y25*%
%MOIN*%
G70*
G04*
G04 #@! TF.SameCoordinates,74860364-7C4C-4BB1-8EB4-A47DF166201D*
G04*
G04*
G04 #@! TF.FilePolarity,Positive*
G04*
G01*
G75*
%ADD14C,0.01000*%
%ADD70C,0.00200*%
%ADD71C,0.00267*%
D14*
X0Y0D02*
X148000D01*
Y154500D01*
X0D02*
X148000D01*
X0Y0D02*
Y154500D01*
D70*
X110200Y6200D02*
Y7800D01*
X111800D01*
Y6200D01*
X110200D01*
X120200D02*
Y7800D01*
X121800D01*
Y6200D01*
X120200D01*
X130200D02*
Y7800D01*
X131800D01*
Y6200D01*
X130200D01*
X140200D02*
Y7800D01*
X141800D01*
Y6200D01*
X140200D01*
X119200Y146700D02*
Y148300D01*
X120800D01*
Y146700D01*
X119200D01*
X129200D02*
Y148300D01*
X130800D01*
Y146700D01*
X129200D01*
X139200D02*
Y148300D01*
X140800D01*
Y146700D01*
X139200D01*
X138700Y99200D02*
Y100800D01*
X140300D01*
Y99200D01*
X138700D01*
Y89200D02*
Y90800D01*
X140300D01*
Y89200D01*
X138700D01*
Y79200D02*
Y80800D01*
X140300D01*
Y79200D01*
X138700D01*
Y69200D02*
Y70800D01*
X140300D01*
Y69200D01*
X138700D01*
X77342Y15484D02*
X76543Y17084D01*
X78142D01*
X77342Y15484D01*
X57657D02*
X56858Y17084D01*
X58457D01*
X57657Y15484D01*
X82756Y4657D02*
X83156Y5057D01*
X83556D01*
X83156Y5457D01*
X83556Y5857D01*
X83156D01*
X82756Y6257D01*
X82356Y5857D01*
X81956D01*
X82356Y5457D01*
X81956Y5057D01*
X82356D01*
X82756Y4657D01*
X52244D02*
X52644Y5057D01*
X53044D01*
X52644Y5457D01*
X53044Y5857D01*
X52644D01*
X52244Y6257D01*
X51844Y5857D01*
X51444D01*
X51844Y5457D01*
X51444Y5057D01*
X51844D01*
X52244Y4657D01*
X81365Y19617D02*
X81765Y20417D01*
X81365Y21217D01*
X82165Y20817D01*
X82965Y21217D01*
X82565Y20417D01*
X82965Y19617D01*
X82165Y20017D01*
X81365Y19617D01*
X52035D02*
X52435Y20417D01*
X52035Y21217D01*
X52835Y20817D01*
X53635Y21217D01*
X53235Y20417D01*
X53635Y19617D01*
X52835Y20017D01*
X52035Y19617D01*
X5700Y26200D02*
Y27800D01*
X7300D01*
Y26200D01*
X5700D01*
Y16200D02*
Y17800D01*
X7300D01*
Y16200D01*
X5700D01*
Y6200D02*
Y7800D01*
X7300D01*
Y6200D01*
X5700D01*
X8100Y138100D02*
Y137700D01*
X8900D01*
Y138100D01*
X9300D01*
Y138900D01*
X8900D01*
Y139300D01*
X8100D01*
Y138900D01*
X7700D01*
Y138100D01*
X8100D01*
Y148100D02*
Y147700D01*
X8900D01*
Y148100D01*
X9300D01*
Y148900D01*
X8900D01*
Y149300D01*
X8100D01*
Y148900D01*
X7700D01*
Y148100D01*
X8100D01*
X5700Y78700D02*
Y80300D01*
X7300D01*
Y78700D01*
X5700D01*
Y88700D02*
Y90300D01*
X7300D01*
Y88700D01*
X5700D01*
Y98700D02*
Y100300D01*
X7300D01*
Y98700D01*
X5700D01*
X20700Y90200D02*
X21100D01*
X21500Y90600D01*
X21900Y90200D01*
X22300D01*
Y90600D01*
X21900Y91000D01*
X22300Y91400D01*
Y91800D01*
X21900D01*
X21500Y91400D01*
X21100Y91800D01*
X20700D01*
Y91400D01*
X21100Y91000D01*
X20700Y90600D01*
Y90200D01*
Y80200D02*
X21100D01*
X21500Y80600D01*
X21900Y80200D01*
X22300D01*
Y80600D01*
X21900Y81000D01*
X22300Y81400D01*
Y81800D01*
X21900D01*
X21500Y81400D01*
X21100Y81800D01*
X20700D01*
Y81400D01*
X21100Y81000D01*
X20700Y80600D01*
Y80200D01*
Y100200D02*
X21100D01*
X21500Y100600D01*
X21900Y100200D01*
X22300D01*
Y100600D01*
X21900Y101000D01*
X22300Y101400D01*
Y101800D01*
X21900D01*
X21500Y101400D01*
X21100Y101800D01*
X20700D01*
Y101400D01*
X21100Y101000D01*
X20700Y100600D01*
Y100200D01*
X79700Y54000D02*
X80500Y54800D01*
X81300Y54000D01*
X80500Y53200D01*
X79700Y54000D01*
X35700Y111500D02*
X36500Y112300D01*
X37300Y111500D01*
X36500Y110700D01*
X35700Y111500D01*
X87200Y52000D02*
X88000Y52800D01*
X88800Y52000D01*
X88000Y51200D01*
X87200Y52000D01*
X116200Y105000D02*
X117000Y105800D01*
X117800Y105000D01*
X117000Y104200D01*
X116200Y105000D01*
X102200Y41500D02*
X103000Y42300D01*
X103800Y41500D01*
X103000Y40700D01*
X102200Y41500D01*
X31200Y68000D02*
X32000Y68800D01*
X32800Y68000D01*
X32000Y67200D01*
X31200Y68000D01*
X51200Y120000D02*
X52000Y120800D01*
X52800Y120000D01*
X52000Y119200D01*
X51200Y120000D01*
X94200Y99500D02*
X95000Y100300D01*
X95800Y99500D01*
X95000Y98700D01*
X94200Y99500D01*
X92200Y94500D02*
X93000Y95300D01*
X93800Y94500D01*
X93000Y93700D01*
X92200Y94500D01*
X94231Y73857D02*
X95031Y74657D01*
X95831Y73857D01*
X95031Y73057D01*
X94231Y73857D01*
X142897Y53677D02*
X143697Y54477D01*
X144497Y53677D01*
X143697Y52877D01*
X142897Y53677D01*
Y49677D02*
X143697Y50477D01*
X144497Y49677D01*
X143697Y48877D01*
X142897Y49677D01*
Y45677D02*
X143697Y46477D01*
X144497Y45677D01*
X143697Y44877D01*
X142897Y45677D01*
Y41677D02*
X143697Y42477D01*
X144497Y41677D01*
X143697Y40877D01*
X142897Y41677D01*
X138897D02*
X139697Y42477D01*
X140497Y41677D01*
X139697Y40877D01*
X138897Y41677D01*
Y45677D02*
X139697Y46477D01*
X140497Y45677D01*
X139697Y44877D01*
X138897Y45677D01*
Y49677D02*
X139697Y50477D01*
X140497Y49677D01*
X139697Y48877D01*
X138897Y49677D01*
Y53677D02*
X139697Y54477D01*
X140497Y53677D01*
X139697Y52877D01*
X138897Y53677D01*
X18397Y146677D02*
X19197Y147477D01*
X19997Y146677D01*
X19197Y145877D01*
X18397Y146677D01*
Y142677D02*
X19197Y143477D01*
X19997Y142677D01*
X19197Y141877D01*
X18397Y142677D01*
Y138677D02*
X19197Y139477D01*
X19997Y138677D01*
X19197Y137877D01*
X18397Y138677D01*
Y134677D02*
X19197Y135477D01*
X19997Y134677D01*
X19197Y133877D01*
X18397Y134677D01*
Y130677D02*
X19197Y131477D01*
X19997Y130677D01*
X19197Y129877D01*
X18397Y130677D01*
Y126677D02*
X19197Y127477D01*
X19997Y126677D01*
X19197Y125877D01*
X18397Y126677D01*
Y122677D02*
X19197Y123477D01*
X19997Y122677D01*
X19197Y121877D01*
X18397Y122677D01*
Y118677D02*
X19197Y119477D01*
X19997Y118677D01*
X19197Y117877D01*
X18397Y118677D01*
X14397D02*
X15197Y119477D01*
X15997Y118677D01*
X15197Y117877D01*
X14397Y118677D01*
Y122677D02*
X15197Y123477D01*
X15997Y122677D01*
X15197Y121877D01*
X14397Y122677D01*
Y126677D02*
X15197Y127477D01*
X15997Y126677D01*
X15197Y125877D01*
X14397Y126677D01*
Y130677D02*
X15197Y131477D01*
X15997Y130677D01*
X15197Y129877D01*
X14397Y130677D01*
Y134677D02*
X15197Y135477D01*
X15997Y134677D01*
X15197Y133877D01*
X14397Y134677D01*
Y138677D02*
X15197Y139477D01*
X15997Y138677D01*
X15197Y137877D01*
X14397Y138677D01*
Y142677D02*
X15197Y143477D01*
X15997Y142677D01*
X15197Y141877D01*
X14397Y142677D01*
Y146677D02*
X15197Y147477D01*
X15997Y146677D01*
X15197Y145877D01*
X14397Y146677D01*
X115897Y140677D02*
X116697Y141477D01*
X117497Y140677D01*
X116697Y139877D01*
X115897Y140677D01*
Y136677D02*
X116697Y137477D01*
X117497Y136677D01*
X116697Y135877D01*
X115897Y136677D01*
Y132677D02*
X116697Y133477D01*
X117497Y132677D01*
X116697Y131877D01*
X115897Y132677D01*
Y128677D02*
X116697Y129477D01*
X117497Y128677D01*
X116697Y127877D01*
X115897Y128677D01*
Y124677D02*
X116697Y125477D01*
X117497Y124677D01*
X116697Y123877D01*
X115897Y124677D01*
Y120677D02*
X116697Y121477D01*
X117497Y120677D01*
X116697Y119877D01*
X115897Y120677D01*
Y116677D02*
X116697Y117477D01*
X117497Y116677D01*
X116697Y115877D01*
X115897Y116677D01*
Y112677D02*
X116697Y113477D01*
X117497Y112677D01*
X116697Y111877D01*
X115897Y112677D01*
X111897D02*
X112697Y113477D01*
X113497Y112677D01*
X112697Y111877D01*
X111897Y112677D01*
Y116677D02*
X112697Y117477D01*
X113497Y116677D01*
X112697Y115877D01*
X111897Y116677D01*
Y120677D02*
X112697Y121477D01*
X113497Y120677D01*
X112697Y119877D01*
X111897Y120677D01*
Y124677D02*
X112697Y125477D01*
X113497Y124677D01*
X112697Y123877D01*
X111897Y124677D01*
Y128677D02*
X112697Y129477D01*
X113497Y128677D01*
X112697Y127877D01*
X111897Y128677D01*
Y132677D02*
X112697Y133477D01*
X113497Y132677D01*
X112697Y131877D01*
X111897Y132677D01*
Y136677D02*
X112697Y137477D01*
X113497Y136677D01*
X112697Y135877D01*
X111897Y136677D01*
Y140677D02*
X112697Y141477D01*
X113497Y140677D01*
X112697Y139877D01*
X111897Y140677D01*
X22200Y111000D02*
X23000Y111800D01*
X23800Y111000D01*
X23000Y110200D01*
X22200Y111000D01*
X59700Y78000D02*
X60500Y78800D01*
X61300Y78000D01*
X60500Y77200D01*
X59700Y78000D01*
X72200D02*
X73000Y78800D01*
X73800Y78000D01*
X73000Y77200D01*
X72200Y78000D01*
X118200Y63500D02*
X119000Y64300D01*
X119800Y63500D01*
X119000Y62700D01*
X118200Y63500D01*
X115700Y87500D02*
X116500Y88300D01*
X117300Y87500D01*
X116500Y86700D01*
X115700Y87500D01*
X117200Y80000D02*
X118000Y80800D01*
X118800Y80000D01*
X118000Y79200D01*
X117200Y80000D01*
Y75500D02*
X118000Y76300D01*
X118800Y75500D01*
X118000Y74700D01*
X117200Y75500D01*
X87700Y13500D02*
X88500Y14300D01*
X89300Y13500D01*
X88500Y12700D01*
X87700Y13500D01*
X51200Y28500D02*
X52000Y29300D01*
X52800Y28500D01*
X52000Y27700D01*
X51200Y28500D01*
X63422Y29000D02*
X64222Y29800D01*
X65022Y29000D01*
X64222Y28200D01*
X63422Y29000D01*
X67200Y27000D02*
X68000Y27800D01*
X68800Y27000D01*
X68000Y26200D01*
X67200Y27000D01*
D71*
X23300Y23343D02*
G03*
X23300Y23343I-800J0D01*
G01*
Y13500D02*
G03*
X23300Y13500I-800J0D01*
G01*
M02*
