G04*
G04 #@! TF.GenerationSoftware,Altium Limited,Altium Designer,20.1.12 (249)*
G04*
G04 Layer_Color=8421504*
%FSLAX25Y25*%
%MOIN*%
G70*
G04*
G04 #@! TF.SameCoordinates,74860364-7C4C-4BB1-8EB4-A47DF166201D*
G04*
G04*
G04 #@! TF.FilePolarity,Positive*
G04*
G01*
G75*
%ADD14C,0.01000*%
%ADD17R,0.07874X0.04724*%
%ADD18R,0.04331X0.06693*%
%ADD19R,0.05512X0.05315*%
%ADD20R,0.03937X0.03740*%
%ADD21R,0.03543X0.03347*%
%ADD22R,0.03347X0.03543*%
%ADD23R,0.06102X0.07284*%
%ADD24R,0.03740X0.03937*%
%ADD25R,0.01772X0.05118*%
%ADD26R,0.07874X0.03937*%
%ADD27R,0.07874X0.12992*%
D14*
X0Y0D02*
X148000D01*
Y154500D01*
X0D02*
X148000D01*
X0Y0D02*
Y154500D01*
D17*
X43472Y120559D02*
D03*
Y112685D02*
D03*
Y104811D02*
D03*
Y96937D02*
D03*
Y89063D02*
D03*
Y81189D02*
D03*
Y73315D02*
D03*
Y65441D02*
D03*
X102527D02*
D03*
Y73315D02*
D03*
Y81189D02*
D03*
Y89063D02*
D03*
Y96937D02*
D03*
Y104811D02*
D03*
Y112685D02*
D03*
Y120559D02*
D03*
D18*
X53315Y59535D02*
D03*
X61189D02*
D03*
X69063D02*
D03*
X76937D02*
D03*
X84811D02*
D03*
X92685D02*
D03*
D19*
X26500Y151500D02*
D03*
Y126500D02*
D03*
X24500Y66500D02*
D03*
Y41500D02*
D03*
D20*
X112000Y65752D02*
D03*
Y72248D02*
D03*
Y101248D02*
D03*
Y94752D02*
D03*
Y80252D02*
D03*
Y86748D02*
D03*
X31500Y118748D02*
D03*
Y112252D02*
D03*
Y97752D02*
D03*
Y104248D02*
D03*
X8000Y121752D02*
D03*
Y128248D02*
D03*
D21*
X37500Y53244D02*
D03*
Y46748D02*
D03*
D22*
X35752Y21500D02*
D03*
X42248D02*
D03*
X35252Y9000D02*
D03*
X41748D02*
D03*
X98748Y14500D02*
D03*
X92252D02*
D03*
X134248Y32500D02*
D03*
X127752D02*
D03*
D23*
X90283Y6500D02*
D03*
X100717D02*
D03*
X136217Y24000D02*
D03*
X125783D02*
D03*
D24*
X5752Y65500D02*
D03*
X12248D02*
D03*
D25*
X70059Y20417D02*
D03*
X67500D02*
D03*
X64941D02*
D03*
X72618D02*
D03*
X62382D02*
D03*
D26*
X91295Y46055D02*
D03*
Y37000D02*
D03*
Y27945D02*
D03*
D27*
X115705Y37000D02*
D03*
M02*
