G04*
G04 #@! TF.GenerationSoftware,Altium Limited,Altium Designer,20.1.12 (249)*
G04*
G04 Layer_Color=8388736*
%FSLAX25Y25*%
%MOIN*%
G70*
G04*
G04 #@! TF.SameCoordinates,74860364-7C4C-4BB1-8EB4-A47DF166201D*
G04*
G04*
G04 #@! TF.FilePolarity,Negative*
G04*
G01*
G75*
%ADD14C,0.01000*%
%ADD28R,0.08674X0.05524*%
%ADD29R,0.05131X0.07493*%
%ADD30R,0.06312X0.06115*%
%ADD31R,0.04737X0.04540*%
%ADD32R,0.04343X0.04147*%
%ADD33R,0.04147X0.04343*%
%ADD34R,0.06902X0.08083*%
%ADD35R,0.04540X0.04737*%
%ADD36R,0.02572X0.05918*%
%ADD37R,0.08674X0.04737*%
%ADD38R,0.08674X0.13792*%
%ADD39C,0.06706*%
%ADD40R,0.06706X0.06706*%
%ADD41C,0.04855*%
%ADD42R,0.06706X0.06706*%
%ADD43C,0.03950*%
%ADD44O,0.05328X0.07887*%
%ADD45O,0.06509X0.08674*%
%ADD46C,0.07099*%
%ADD47O,0.08300X0.06800*%
D14*
X0Y0D02*
X148000D01*
Y154500D01*
X0D02*
X148000D01*
X0Y0D02*
Y154500D01*
D28*
X43472Y120559D02*
D03*
Y112685D02*
D03*
Y104811D02*
D03*
Y96937D02*
D03*
Y89063D02*
D03*
Y81189D02*
D03*
Y73315D02*
D03*
Y65441D02*
D03*
X102527D02*
D03*
Y73315D02*
D03*
Y81189D02*
D03*
Y89063D02*
D03*
Y96937D02*
D03*
Y104811D02*
D03*
Y112685D02*
D03*
Y120559D02*
D03*
D29*
X53315Y59535D02*
D03*
X61189D02*
D03*
X69063D02*
D03*
X76937D02*
D03*
X84811D02*
D03*
X92685D02*
D03*
D30*
X26500Y151500D02*
D03*
Y126500D02*
D03*
X24500Y66500D02*
D03*
Y41500D02*
D03*
D31*
X112000Y65752D02*
D03*
Y72248D02*
D03*
Y101248D02*
D03*
Y94752D02*
D03*
Y80252D02*
D03*
Y86748D02*
D03*
X31500Y118748D02*
D03*
Y112252D02*
D03*
Y97752D02*
D03*
Y104248D02*
D03*
X8000Y121752D02*
D03*
Y128248D02*
D03*
D32*
X37500Y53244D02*
D03*
Y46748D02*
D03*
D33*
X35752Y21500D02*
D03*
X42248D02*
D03*
X35252Y9000D02*
D03*
X41748D02*
D03*
X98748Y14500D02*
D03*
X92252D02*
D03*
X134248Y32500D02*
D03*
X127752D02*
D03*
D34*
X90283Y6500D02*
D03*
X100717D02*
D03*
X136217Y24000D02*
D03*
X125783D02*
D03*
D35*
X5752Y65500D02*
D03*
X12248D02*
D03*
D36*
X70059Y20417D02*
D03*
X67500D02*
D03*
X64941D02*
D03*
X72618D02*
D03*
X62382D02*
D03*
D37*
X91295Y46055D02*
D03*
Y37000D02*
D03*
Y27945D02*
D03*
D38*
X115705Y37000D02*
D03*
D39*
X111000Y7000D02*
D03*
X121000D02*
D03*
X131000D02*
D03*
X120000Y147500D02*
D03*
X130000D02*
D03*
X139500Y90000D02*
D03*
Y80000D02*
D03*
Y70000D02*
D03*
X6500Y17000D02*
D03*
Y7000D02*
D03*
Y89500D02*
D03*
Y99500D02*
D03*
D40*
X141000Y7000D02*
D03*
X140000Y147500D02*
D03*
D41*
X22500Y23343D02*
D03*
Y13500D02*
D03*
D42*
X139500Y100000D02*
D03*
X6500Y27000D02*
D03*
Y79500D02*
D03*
D43*
X77342Y16284D02*
D03*
X57657D02*
D03*
D44*
X82756Y5457D02*
D03*
X52244D02*
D03*
D45*
X82165Y20417D02*
D03*
X52835D02*
D03*
D46*
X8500Y138500D02*
D03*
Y148500D02*
D03*
D47*
X21500Y91000D02*
D03*
Y81000D02*
D03*
Y101000D02*
D03*
M02*
