G04*
G04 #@! TF.GenerationSoftware,Altium Limited,Altium Designer,20.1.12 (249)*
G04*
G04 Layer_Color=16711935*
%FSLAX25Y25*%
%MOIN*%
G70*
G04*
G04 #@! TF.SameCoordinates,74860364-7C4C-4BB1-8EB4-A47DF166201D*
G04*
G04*
G04 #@! TF.FilePolarity,Negative*
G04*
G01*
G75*
%ADD14C,0.01000*%
%ADD31R,0.04737X0.04540*%
%ADD32R,0.04343X0.04147*%
%ADD33R,0.04147X0.04343*%
%ADD35R,0.04540X0.04737*%
%ADD39C,0.06706*%
%ADD40R,0.06706X0.06706*%
%ADD41C,0.04855*%
%ADD42R,0.06706X0.06706*%
%ADD43C,0.03950*%
%ADD44O,0.05328X0.07887*%
%ADD45O,0.06509X0.08674*%
%ADD46C,0.07099*%
%ADD47O,0.08300X0.06800*%
%ADD66R,0.05328X0.06312*%
%ADD67O,0.03162X0.09461*%
%ADD68R,0.08674X0.05721*%
%ADD69R,0.07099X0.03162*%
D14*
X0Y0D02*
X148000D01*
Y154500D01*
X0D02*
X148000D01*
X0Y0D02*
Y154500D01*
D31*
X42500Y99748D02*
D03*
Y93252D02*
D03*
X35500D02*
D03*
Y99748D02*
D03*
X42000Y78752D02*
D03*
Y85248D02*
D03*
X67500Y82252D02*
D03*
Y88748D02*
D03*
X75500Y82252D02*
D03*
Y88748D02*
D03*
D32*
X85000Y75748D02*
D03*
Y69252D02*
D03*
X90500Y75248D02*
D03*
Y68752D02*
D03*
D33*
X77248Y31500D02*
D03*
X70752D02*
D03*
D35*
X81252Y102000D02*
D03*
X87748D02*
D03*
X129748Y70000D02*
D03*
X123252D02*
D03*
X129748Y80500D02*
D03*
X123252D02*
D03*
D39*
X111000Y7000D02*
D03*
X121000D02*
D03*
X131000D02*
D03*
X120000Y147500D02*
D03*
X130000D02*
D03*
X139500Y90000D02*
D03*
Y80000D02*
D03*
Y70000D02*
D03*
X6500Y17000D02*
D03*
Y7000D02*
D03*
Y89500D02*
D03*
Y99500D02*
D03*
D40*
X141000Y7000D02*
D03*
X140000Y147500D02*
D03*
D41*
X22500Y23343D02*
D03*
Y13500D02*
D03*
D42*
X139500Y100000D02*
D03*
X6500Y27000D02*
D03*
Y79500D02*
D03*
D43*
X77342Y16284D02*
D03*
X57657D02*
D03*
D44*
X82756Y5457D02*
D03*
X52244D02*
D03*
D45*
X82165Y20417D02*
D03*
X52835D02*
D03*
D46*
X8500Y138500D02*
D03*
Y148500D02*
D03*
D47*
X21500Y91000D02*
D03*
Y81000D02*
D03*
Y101000D02*
D03*
D66*
X29784Y5000D02*
D03*
X22500D02*
D03*
D67*
X76500Y45551D02*
D03*
X71500D02*
D03*
X66500D02*
D03*
X61500D02*
D03*
X56500D02*
D03*
X51500D02*
D03*
X46500D02*
D03*
X41500D02*
D03*
X76500Y64449D02*
D03*
X71500D02*
D03*
X66500D02*
D03*
X61500D02*
D03*
X56500D02*
D03*
X51500D02*
D03*
X46500D02*
D03*
X41500D02*
D03*
D68*
X40500Y9118D02*
D03*
Y23882D02*
D03*
D69*
X91000Y86000D02*
D03*
X83913Y89740D02*
D03*
Y82260D02*
D03*
X52457Y85500D02*
D03*
X59543Y81760D02*
D03*
Y89240D02*
D03*
M02*
