G04*
G04 #@! TF.GenerationSoftware,Altium Limited,Altium Designer,20.1.12 (249)*
G04*
G04 Layer_Color=32896*
%FSLAX25Y25*%
%MOIN*%
G70*
G04*
G04 #@! TF.SameCoordinates,74860364-7C4C-4BB1-8EB4-A47DF166201D*
G04*
G04*
G04 #@! TF.FilePolarity,Positive*
G04*
G01*
G75*
%ADD11C,0.00984*%
%ADD12C,0.00787*%
%ADD13C,0.00591*%
%ADD14C,0.01000*%
%ADD15C,0.00394*%
G36*
X103000Y112000D02*
X39945D01*
Y132845D01*
X103000D01*
Y112000D01*
D02*
G37*
%LPC*%
G36*
X101000Y130845D02*
X100810D01*
Y119034D01*
X101000D01*
Y130845D01*
D02*
G37*
G36*
X100430D02*
X100240D01*
Y119034D01*
X100430D01*
Y130845D01*
D02*
G37*
G36*
X100050D02*
X99671D01*
Y119034D01*
X100050D01*
Y130845D01*
D02*
G37*
G36*
X99481D02*
X99101D01*
Y119034D01*
X99481D01*
Y130845D01*
D02*
G37*
G36*
X98911D02*
X98721D01*
Y119034D01*
X98911D01*
Y130845D01*
D02*
G37*
G36*
X98531D02*
X98152D01*
Y119034D01*
X98531D01*
Y130845D01*
D02*
G37*
G36*
X97962D02*
X97772D01*
Y119034D01*
X97962D01*
Y130845D01*
D02*
G37*
G36*
X97582D02*
X97202D01*
Y119034D01*
X97582D01*
Y130845D01*
D02*
G37*
G36*
X96822D02*
X96632D01*
Y119034D01*
X96822D01*
Y130845D01*
D02*
G37*
G36*
X96443D02*
X96253D01*
Y119034D01*
X96443D01*
Y130845D01*
D02*
G37*
G36*
X96063D02*
X95873D01*
Y119034D01*
X96063D01*
Y130845D01*
D02*
G37*
G36*
X95493D02*
X95303D01*
Y119034D01*
X95493D01*
Y130845D01*
D02*
G37*
G36*
X95113D02*
X94924D01*
Y119034D01*
X95113D01*
Y130845D01*
D02*
G37*
G36*
X94544D02*
X94354D01*
Y119034D01*
X94544D01*
Y130845D01*
D02*
G37*
G36*
X93974D02*
X93784D01*
Y119034D01*
X93974D01*
Y130845D01*
D02*
G37*
G36*
X93594D02*
X93214D01*
Y119034D01*
X93594D01*
Y130845D01*
D02*
G37*
G36*
X93025D02*
X92835D01*
Y119034D01*
X93025D01*
Y130845D01*
D02*
G37*
G36*
X92645D02*
X92455D01*
Y119034D01*
X92645D01*
Y130845D01*
D02*
G37*
G36*
X92075D02*
X91885D01*
Y119034D01*
X92075D01*
Y130845D01*
D02*
G37*
G36*
X91695D02*
X91316D01*
Y119034D01*
X91695D01*
Y130845D01*
D02*
G37*
G36*
X91126D02*
X90936D01*
Y119034D01*
X91126D01*
Y130845D01*
D02*
G37*
G36*
X90556D02*
X90366D01*
Y119034D01*
X90556D01*
Y130845D01*
D02*
G37*
G36*
X90176D02*
X89986D01*
Y119034D01*
X90176D01*
Y130845D01*
D02*
G37*
G36*
X89607D02*
X89417D01*
Y119034D01*
X89607D01*
Y130845D01*
D02*
G37*
G36*
X89037D02*
X88847D01*
Y119034D01*
X89037D01*
Y130845D01*
D02*
G37*
G36*
X88657D02*
X88467D01*
Y119034D01*
X88657D01*
Y130845D01*
D02*
G37*
G36*
X88277D02*
X87898D01*
Y119034D01*
X88277D01*
Y130845D01*
D02*
G37*
G36*
X87708D02*
X87518D01*
Y119034D01*
X87708D01*
Y130845D01*
D02*
G37*
G36*
X87328D02*
X86948D01*
Y119034D01*
X87328D01*
Y130845D01*
D02*
G37*
G36*
X86568D02*
X86379D01*
Y119034D01*
X86568D01*
Y130845D01*
D02*
G37*
G36*
X86189D02*
X85999D01*
Y119034D01*
X86189D01*
Y130845D01*
D02*
G37*
G36*
X85619D02*
X85429D01*
Y119034D01*
X85619D01*
Y130845D01*
D02*
G37*
G36*
X85239D02*
X85049D01*
Y119034D01*
X85239D01*
Y130845D01*
D02*
G37*
G36*
X84670D02*
X84480D01*
Y119034D01*
X84670D01*
Y130845D01*
D02*
G37*
G36*
X84100D02*
X83910D01*
Y119034D01*
X84100D01*
Y130845D01*
D02*
G37*
G36*
X83720D02*
X83340D01*
Y119034D01*
X83720D01*
Y130845D01*
D02*
G37*
G36*
X82960D02*
X82771D01*
Y119034D01*
X82960D01*
Y130845D01*
D02*
G37*
G36*
X82581D02*
X82201D01*
Y119034D01*
X82581D01*
Y130845D01*
D02*
G37*
G36*
X82011D02*
X81821D01*
Y119034D01*
X82011D01*
Y130845D01*
D02*
G37*
G36*
X81631D02*
X81441D01*
Y119034D01*
X81631D01*
Y130845D01*
D02*
G37*
G36*
X81251D02*
X81062D01*
Y119034D01*
X81251D01*
Y130845D01*
D02*
G37*
G36*
X80872D02*
X80492D01*
Y119034D01*
X80872D01*
Y130845D01*
D02*
G37*
G36*
X80302D02*
X80112D01*
Y119034D01*
X80302D01*
Y130845D01*
D02*
G37*
G36*
X79732D02*
X79352D01*
Y119034D01*
X79732D01*
Y130845D01*
D02*
G37*
G36*
X79163D02*
X78973D01*
Y119034D01*
X79163D01*
Y130845D01*
D02*
G37*
G36*
X78783D02*
X78593D01*
Y119034D01*
X78783D01*
Y130845D01*
D02*
G37*
G36*
X78213D02*
X78023D01*
Y119034D01*
X78213D01*
Y130845D01*
D02*
G37*
G36*
X77833D02*
X77644D01*
Y119034D01*
X77833D01*
Y130845D01*
D02*
G37*
G36*
X77264D02*
X77074D01*
Y119034D01*
X77264D01*
Y130845D01*
D02*
G37*
G36*
X76694D02*
X76504D01*
Y119034D01*
X76694D01*
Y130845D01*
D02*
G37*
G36*
X76314D02*
X75934D01*
Y119034D01*
X76314D01*
Y130845D01*
D02*
G37*
G36*
X75745D02*
X75555D01*
Y119034D01*
X75745D01*
Y130845D01*
D02*
G37*
G36*
X75365D02*
X74985D01*
Y119034D01*
X75365D01*
Y130845D01*
D02*
G37*
G36*
X74795D02*
X74605D01*
Y119034D01*
X74795D01*
Y130845D01*
D02*
G37*
G36*
X74225D02*
X74036D01*
Y119034D01*
X74225D01*
Y130845D01*
D02*
G37*
G36*
X73846D02*
X73656D01*
Y119034D01*
X73846D01*
Y130845D01*
D02*
G37*
G36*
X73466D02*
X73276D01*
Y119034D01*
X73466D01*
Y130845D01*
D02*
G37*
G36*
X73086D02*
X72706D01*
Y119034D01*
X73086D01*
Y130845D01*
D02*
G37*
G36*
X72517D02*
X72137D01*
Y119034D01*
X72517D01*
Y130845D01*
D02*
G37*
G36*
X71757D02*
X71567D01*
Y119034D01*
X71757D01*
Y130845D01*
D02*
G37*
G36*
X71377D02*
X71187D01*
Y119034D01*
X71377D01*
Y130845D01*
D02*
G37*
G36*
X70807D02*
X70428D01*
Y119034D01*
X70807D01*
Y130845D01*
D02*
G37*
G36*
X70238D02*
X70048D01*
Y119034D01*
X70238D01*
Y130845D01*
D02*
G37*
G36*
X69858D02*
X69478D01*
Y119034D01*
X69858D01*
Y130845D01*
D02*
G37*
G36*
X69288D02*
X69099D01*
Y119034D01*
X69288D01*
Y130845D01*
D02*
G37*
G36*
X68909D02*
X68719D01*
Y119034D01*
X68909D01*
Y130845D01*
D02*
G37*
G36*
X68529D02*
X68149D01*
Y119034D01*
X68529D01*
Y130845D01*
D02*
G37*
G36*
X67959D02*
X67579D01*
Y119034D01*
X67959D01*
Y130845D01*
D02*
G37*
G36*
X67390D02*
X67200D01*
Y119034D01*
X67390D01*
Y130845D01*
D02*
G37*
G36*
X66820D02*
X66630D01*
Y119034D01*
X66820D01*
Y130845D01*
D02*
G37*
G36*
X66440D02*
X66250D01*
Y119034D01*
X66440D01*
Y130845D01*
D02*
G37*
G36*
X65870D02*
X65680D01*
Y119034D01*
X65870D01*
Y130845D01*
D02*
G37*
G36*
X65491D02*
X65301D01*
Y119034D01*
X65491D01*
Y130845D01*
D02*
G37*
G36*
X64921D02*
X64731D01*
Y119034D01*
X64921D01*
Y130845D01*
D02*
G37*
G36*
X64351D02*
X64161D01*
Y119034D01*
X64351D01*
Y130845D01*
D02*
G37*
G36*
X63972D02*
X63782D01*
Y119034D01*
X63972D01*
Y130845D01*
D02*
G37*
G36*
X63592D02*
X63212D01*
Y119034D01*
X63592D01*
Y130845D01*
D02*
G37*
G36*
X63022D02*
X62832D01*
Y119034D01*
X63022D01*
Y130845D01*
D02*
G37*
G36*
X62452D02*
X62073D01*
Y119034D01*
X62452D01*
Y130845D01*
D02*
G37*
G36*
X61883D02*
X61693D01*
Y119034D01*
X61883D01*
Y130845D01*
D02*
G37*
G36*
X61503D02*
X61123D01*
Y119034D01*
X61503D01*
Y130845D01*
D02*
G37*
G36*
X60933D02*
X60553D01*
Y119034D01*
X60933D01*
Y130845D01*
D02*
G37*
G36*
X60364D02*
X60174D01*
Y119034D01*
X60364D01*
Y130845D01*
D02*
G37*
G36*
X59794D02*
X59604D01*
Y119034D01*
X59794D01*
Y130845D01*
D02*
G37*
G36*
X59414D02*
X59224D01*
Y119034D01*
X59414D01*
Y130845D01*
D02*
G37*
G36*
X59034D02*
X58844D01*
Y119034D01*
X59034D01*
Y130845D01*
D02*
G37*
G36*
X58465D02*
X58275D01*
Y119034D01*
X58465D01*
Y130845D01*
D02*
G37*
G36*
X58085D02*
X57895D01*
Y119034D01*
X58085D01*
Y130845D01*
D02*
G37*
G36*
X57515D02*
X57325D01*
Y119034D01*
X57515D01*
Y130845D01*
D02*
G37*
G36*
X56946D02*
X56756D01*
Y119034D01*
X56946D01*
Y130845D01*
D02*
G37*
G36*
X56566D02*
X56186D01*
Y119034D01*
X56566D01*
Y130845D01*
D02*
G37*
G36*
X55996D02*
X55806D01*
Y119034D01*
X55996D01*
Y130845D01*
D02*
G37*
G36*
X55616D02*
X55237D01*
Y119034D01*
X55616D01*
Y130845D01*
D02*
G37*
G36*
X55047D02*
X54857D01*
Y119034D01*
X55047D01*
Y130845D01*
D02*
G37*
G36*
X54477D02*
X54287D01*
Y119034D01*
X54477D01*
Y130845D01*
D02*
G37*
G36*
X54097D02*
X53907D01*
Y119034D01*
X54097D01*
Y130845D01*
D02*
G37*
G36*
X53527D02*
X53148D01*
Y119034D01*
X53527D01*
Y130845D01*
D02*
G37*
G36*
X52958D02*
X52768D01*
Y119034D01*
X52958D01*
Y130845D01*
D02*
G37*
G36*
X52578D02*
X52198D01*
Y119034D01*
X52578D01*
Y130845D01*
D02*
G37*
G36*
X52008D02*
X51819D01*
Y119034D01*
X52008D01*
Y130845D01*
D02*
G37*
G36*
X51629D02*
X51249D01*
Y119034D01*
X51629D01*
Y130845D01*
D02*
G37*
G36*
X51059D02*
X50869D01*
Y119034D01*
X51059D01*
Y130845D01*
D02*
G37*
G36*
X50489D02*
X50299D01*
Y119034D01*
X50489D01*
Y130845D01*
D02*
G37*
G36*
X50109D02*
X49920D01*
Y119034D01*
X50109D01*
Y130845D01*
D02*
G37*
G36*
X49730D02*
X49350D01*
Y119034D01*
X49730D01*
Y130845D01*
D02*
G37*
G36*
X49160D02*
X48780D01*
Y119034D01*
X49160D01*
Y130845D01*
D02*
G37*
G36*
X48401D02*
X48211D01*
Y119034D01*
X48401D01*
Y130845D01*
D02*
G37*
G36*
X48021D02*
X47831D01*
Y119034D01*
X48021D01*
Y130845D01*
D02*
G37*
G36*
X47641D02*
X47261D01*
Y119034D01*
X47641D01*
Y130845D01*
D02*
G37*
G36*
X47071D02*
X46881D01*
Y119034D01*
X47071D01*
Y130845D01*
D02*
G37*
G36*
X46692D02*
X46502D01*
Y119034D01*
X46692D01*
Y130845D01*
D02*
G37*
G36*
X46312D02*
X46122D01*
Y119034D01*
X46312D01*
Y130845D01*
D02*
G37*
G36*
X45742D02*
X45362D01*
Y119034D01*
X45742D01*
Y130845D01*
D02*
G37*
G36*
X45172D02*
X44793D01*
Y119034D01*
X45172D01*
Y130845D01*
D02*
G37*
G36*
X44603D02*
X44413D01*
Y119034D01*
X44603D01*
Y130845D01*
D02*
G37*
G36*
X44223D02*
X44033D01*
Y119034D01*
X44223D01*
Y130845D01*
D02*
G37*
G36*
X43653D02*
X43463D01*
Y119034D01*
X43653D01*
Y130845D01*
D02*
G37*
G36*
X43273D02*
X42894D01*
Y119034D01*
X43273D01*
Y130845D01*
D02*
G37*
G36*
X42704D02*
X42324D01*
Y119034D01*
X42704D01*
Y130845D01*
D02*
G37*
G36*
X42134D02*
X41944D01*
Y119034D01*
X42134D01*
Y130845D01*
D02*
G37*
G36*
X66272Y117841D02*
X65801D01*
Y117302D01*
X66272D01*
Y117841D01*
D02*
G37*
G36*
X51068Y117857D02*
X50762D01*
Y114000D01*
X51234D01*
Y117002D01*
X51240Y116997D01*
X51267Y116975D01*
X51301Y116941D01*
X51356Y116903D01*
X51417Y116853D01*
X51495Y116797D01*
X51584Y116736D01*
X51683Y116675D01*
X51689D01*
X51695Y116670D01*
X51728Y116647D01*
X51783Y116620D01*
X51850Y116586D01*
X51928Y116548D01*
X52011Y116509D01*
X52094Y116470D01*
X52178Y116436D01*
Y116892D01*
X52172D01*
X52161Y116903D01*
X52139Y116908D01*
X52111Y116925D01*
X52078Y116941D01*
X52039Y116964D01*
X51944Y117019D01*
X51833Y117080D01*
X51722Y117158D01*
X51606Y117247D01*
X51489Y117341D01*
X51484Y117347D01*
X51478Y117352D01*
X51461Y117369D01*
X51439Y117385D01*
X51389Y117441D01*
X51323Y117508D01*
X51256Y117585D01*
X51184Y117674D01*
X51123Y117763D01*
X51068Y117857D01*
D02*
G37*
G36*
X95520Y116847D02*
X95459D01*
X95398Y116842D01*
X95314Y116836D01*
X95220Y116825D01*
X95126Y116808D01*
X95031Y116786D01*
X94942Y116758D01*
X94931Y116753D01*
X94904Y116742D01*
X94865Y116725D01*
X94815Y116703D01*
X94759Y116670D01*
X94704Y116636D01*
X94654Y116592D01*
X94609Y116548D01*
X94604Y116542D01*
X94593Y116525D01*
X94576Y116498D01*
X94554Y116464D01*
X94526Y116414D01*
X94504Y116364D01*
X94482Y116303D01*
X94465Y116231D01*
Y116226D01*
X94460Y116209D01*
X94454Y116176D01*
X94449Y116131D01*
Y116070D01*
X94443Y115998D01*
X94437Y115904D01*
Y115798D01*
Y115165D01*
Y115160D01*
Y115138D01*
Y115104D01*
Y115060D01*
Y115010D01*
Y114949D01*
X94432Y114816D01*
Y114677D01*
X94426Y114538D01*
X94421Y114477D01*
Y114422D01*
X94415Y114372D01*
X94410Y114333D01*
Y114327D01*
X94404Y114305D01*
X94399Y114272D01*
X94382Y114227D01*
X94371Y114178D01*
X94349Y114122D01*
X94321Y114061D01*
X94293Y114000D01*
X94787D01*
X94793Y114005D01*
X94798Y114028D01*
X94809Y114056D01*
X94826Y114100D01*
X94843Y114150D01*
X94854Y114211D01*
X94865Y114278D01*
X94876Y114350D01*
X94881D01*
X94887Y114339D01*
X94920Y114311D01*
X94970Y114272D01*
X95037Y114222D01*
X95120Y114172D01*
X95203Y114117D01*
X95292Y114067D01*
X95386Y114028D01*
X95398Y114022D01*
X95431Y114017D01*
X95481Y114000D01*
X95542Y113983D01*
X95620Y113967D01*
X95708Y113956D01*
X95808Y113944D01*
X95908Y113939D01*
X95953D01*
X95986Y113944D01*
X96025D01*
X96069Y113950D01*
X96169Y113967D01*
X96280Y113995D01*
X96402Y114033D01*
X96513Y114089D01*
X96613Y114161D01*
X96624Y114172D01*
X96652Y114200D01*
X96691Y114250D01*
X96735Y114316D01*
X96780Y114400D01*
X96818Y114494D01*
X96846Y114611D01*
X96852Y114666D01*
X96857Y114733D01*
Y114744D01*
Y114766D01*
X96852Y114805D01*
X96846Y114855D01*
X96835Y114916D01*
X96818Y114977D01*
X96796Y115043D01*
X96768Y115104D01*
X96763Y115110D01*
X96752Y115132D01*
X96730Y115165D01*
X96702Y115204D01*
X96668Y115249D01*
X96624Y115293D01*
X96580Y115338D01*
X96524Y115376D01*
X96519Y115382D01*
X96496Y115393D01*
X96469Y115415D01*
X96424Y115437D01*
X96374Y115460D01*
X96313Y115487D01*
X96252Y115510D01*
X96180Y115532D01*
X96175D01*
X96152Y115537D01*
X96119Y115549D01*
X96075Y115554D01*
X96019Y115565D01*
X95947Y115576D01*
X95864Y115593D01*
X95764Y115604D01*
X95758D01*
X95736Y115610D01*
X95708D01*
X95670Y115615D01*
X95625Y115621D01*
X95570Y115632D01*
X95509Y115637D01*
X95442Y115648D01*
X95309Y115676D01*
X95165Y115704D01*
X95037Y115737D01*
X94976Y115754D01*
X94920Y115770D01*
Y115776D01*
Y115787D01*
X94915Y115820D01*
Y115859D01*
Y115881D01*
Y115893D01*
Y115898D01*
Y115904D01*
Y115937D01*
X94920Y115992D01*
X94931Y116053D01*
X94948Y116120D01*
X94976Y116187D01*
X95009Y116248D01*
X95053Y116298D01*
X95059Y116303D01*
X95087Y116325D01*
X95131Y116348D01*
X95187Y116381D01*
X95264Y116409D01*
X95353Y116436D01*
X95464Y116453D01*
X95592Y116459D01*
X95647D01*
X95703Y116453D01*
X95780Y116442D01*
X95858Y116431D01*
X95942Y116409D01*
X96019Y116381D01*
X96086Y116342D01*
X96091Y116337D01*
X96114Y116320D01*
X96141Y116292D01*
X96175Y116248D01*
X96208Y116192D01*
X96247Y116120D01*
X96280Y116031D01*
X96313Y115931D01*
X96774Y115992D01*
Y115998D01*
X96768Y116004D01*
Y116020D01*
X96763Y116042D01*
X96746Y116092D01*
X96724Y116165D01*
X96696Y116237D01*
X96663Y116314D01*
X96619Y116392D01*
X96569Y116464D01*
X96563Y116470D01*
X96541Y116492D01*
X96508Y116525D01*
X96463Y116570D01*
X96402Y116614D01*
X96330Y116658D01*
X96247Y116708D01*
X96152Y116747D01*
X96147D01*
X96141Y116753D01*
X96125Y116758D01*
X96102Y116764D01*
X96047Y116780D01*
X95969Y116797D01*
X95880Y116814D01*
X95769Y116831D01*
X95653Y116842D01*
X95520Y116847D01*
D02*
G37*
G36*
X89437Y116786D02*
X88937D01*
X88354Y115171D01*
Y115165D01*
X88349Y115160D01*
X88343Y115143D01*
X88338Y115116D01*
X88327Y115088D01*
X88315Y115055D01*
X88288Y114977D01*
X88254Y114882D01*
X88221Y114771D01*
X88188Y114655D01*
X88155Y114527D01*
Y114533D01*
X88149Y114544D01*
X88143Y114560D01*
X88138Y114583D01*
X88132Y114611D01*
X88121Y114644D01*
X88099Y114727D01*
X88071Y114821D01*
X88032Y114932D01*
X87999Y115043D01*
X87955Y115160D01*
X87355Y116786D01*
X86883D01*
X87944Y113956D01*
Y113950D01*
X87949Y113933D01*
X87960Y113911D01*
X87971Y113883D01*
X87988Y113845D01*
X88005Y113800D01*
X88043Y113706D01*
X88082Y113600D01*
X88127Y113495D01*
X88171Y113401D01*
X88193Y113362D01*
X88210Y113323D01*
X88216Y113312D01*
X88232Y113284D01*
X88260Y113245D01*
X88293Y113195D01*
X88338Y113140D01*
X88388Y113084D01*
X88437Y113029D01*
X88499Y112984D01*
X88504Y112979D01*
X88526Y112968D01*
X88560Y112951D01*
X88610Y112929D01*
X88665Y112907D01*
X88732Y112890D01*
X88804Y112879D01*
X88887Y112873D01*
X88909D01*
X88937Y112879D01*
X88976D01*
X89020Y112890D01*
X89070Y112901D01*
X89126Y112912D01*
X89187Y112934D01*
X89237Y113373D01*
X89231D01*
X89209Y113367D01*
X89181Y113362D01*
X89148Y113351D01*
X89059Y113334D01*
X88970Y113328D01*
X88943D01*
X88915Y113334D01*
X88881D01*
X88798Y113351D01*
X88759Y113367D01*
X88721Y113384D01*
X88715D01*
X88704Y113395D01*
X88687Y113406D01*
X88665Y113423D01*
X88615Y113467D01*
X88571Y113528D01*
Y113534D01*
X88560Y113545D01*
X88548Y113567D01*
X88537Y113600D01*
X88515Y113645D01*
X88493Y113711D01*
X88460Y113789D01*
X88426Y113883D01*
Y113889D01*
X88415Y113911D01*
X88404Y113950D01*
X88382Y114000D01*
X89437Y116786D01*
D02*
G37*
G36*
X62201Y117907D02*
X62146D01*
X62107Y117902D01*
X62057Y117896D01*
X61996Y117891D01*
X61935Y117885D01*
X61863Y117868D01*
X61713Y117835D01*
X61546Y117785D01*
X61463Y117752D01*
X61386Y117713D01*
X61308Y117663D01*
X61230Y117613D01*
X61225Y117607D01*
X61213Y117602D01*
X61191Y117585D01*
X61164Y117558D01*
X61136Y117530D01*
X61097Y117491D01*
X61058Y117447D01*
X61014Y117402D01*
X60969Y117347D01*
X60925Y117280D01*
X60875Y117213D01*
X60830Y117141D01*
X60792Y117058D01*
X60747Y116975D01*
X60714Y116886D01*
X60681Y116786D01*
X61180Y116670D01*
Y116675D01*
X61186Y116686D01*
X61197Y116708D01*
X61208Y116736D01*
X61219Y116770D01*
X61236Y116814D01*
X61280Y116903D01*
X61335Y117002D01*
X61402Y117102D01*
X61485Y117197D01*
X61574Y117280D01*
X61585Y117291D01*
X61619Y117313D01*
X61674Y117341D01*
X61746Y117380D01*
X61841Y117413D01*
X61946Y117447D01*
X62074Y117469D01*
X62212Y117474D01*
X62257D01*
X62285Y117469D01*
X62323D01*
X62368Y117463D01*
X62473Y117447D01*
X62590Y117424D01*
X62712Y117385D01*
X62840Y117330D01*
X62956Y117258D01*
X62962D01*
X62967Y117247D01*
X63006Y117219D01*
X63056Y117175D01*
X63117Y117108D01*
X63189Y117025D01*
X63256Y116930D01*
X63317Y116814D01*
X63372Y116686D01*
Y116681D01*
X63378Y116670D01*
X63384Y116653D01*
X63389Y116625D01*
X63400Y116592D01*
X63411Y116553D01*
X63428Y116459D01*
X63450Y116348D01*
X63472Y116226D01*
X63483Y116092D01*
X63489Y115948D01*
Y115943D01*
Y115926D01*
Y115898D01*
Y115865D01*
X63483Y115826D01*
Y115776D01*
X63478Y115720D01*
X63472Y115659D01*
X63456Y115526D01*
X63428Y115382D01*
X63395Y115238D01*
X63350Y115093D01*
Y115088D01*
X63345Y115077D01*
X63333Y115060D01*
X63322Y115032D01*
X63289Y114966D01*
X63239Y114888D01*
X63178Y114799D01*
X63100Y114705D01*
X63012Y114622D01*
X62906Y114544D01*
X62901D01*
X62889Y114538D01*
X62873Y114527D01*
X62851Y114516D01*
X62823Y114505D01*
X62790Y114488D01*
X62712Y114455D01*
X62612Y114422D01*
X62501Y114394D01*
X62379Y114372D01*
X62251Y114366D01*
X62212D01*
X62179Y114372D01*
X62140D01*
X62101Y114377D01*
X62002Y114400D01*
X61885Y114427D01*
X61768Y114472D01*
X61646Y114533D01*
X61585Y114566D01*
X61530Y114611D01*
X61524Y114616D01*
X61519Y114622D01*
X61502Y114638D01*
X61480Y114655D01*
X61458Y114683D01*
X61430Y114716D01*
X61397Y114749D01*
X61369Y114794D01*
X61335Y114844D01*
X61297Y114899D01*
X61263Y114955D01*
X61230Y115021D01*
X61202Y115093D01*
X61175Y115171D01*
X61147Y115254D01*
X61125Y115343D01*
X60614Y115216D01*
Y115210D01*
X60620Y115188D01*
X60631Y115154D01*
X60647Y115110D01*
X60664Y115060D01*
X60686Y114999D01*
X60714Y114932D01*
X60747Y114860D01*
X60825Y114705D01*
X60925Y114550D01*
X60986Y114472D01*
X61047Y114394D01*
X61114Y114327D01*
X61191Y114261D01*
X61197Y114255D01*
X61208Y114244D01*
X61236Y114233D01*
X61263Y114211D01*
X61308Y114183D01*
X61352Y114155D01*
X61413Y114128D01*
X61474Y114100D01*
X61546Y114067D01*
X61624Y114039D01*
X61707Y114011D01*
X61796Y113983D01*
X61891Y113961D01*
X61990Y113950D01*
X62096Y113939D01*
X62207Y113933D01*
X62268D01*
X62312Y113939D01*
X62362D01*
X62423Y113944D01*
X62490Y113956D01*
X62568Y113967D01*
X62729Y113995D01*
X62895Y114039D01*
X63062Y114100D01*
X63139Y114139D01*
X63217Y114183D01*
X63222Y114189D01*
X63234Y114194D01*
X63256Y114211D01*
X63278Y114233D01*
X63311Y114255D01*
X63350Y114289D01*
X63395Y114327D01*
X63439Y114372D01*
X63483Y114422D01*
X63533Y114472D01*
X63633Y114599D01*
X63728Y114749D01*
X63811Y114916D01*
Y114921D01*
X63822Y114938D01*
X63828Y114966D01*
X63844Y114999D01*
X63855Y115043D01*
X63872Y115099D01*
X63894Y115160D01*
X63911Y115226D01*
X63927Y115299D01*
X63950Y115382D01*
X63977Y115554D01*
X63999Y115748D01*
X64011Y115948D01*
Y115954D01*
Y115976D01*
Y116009D01*
X64005Y116048D01*
Y116103D01*
X63999Y116159D01*
X63994Y116231D01*
X63983Y116303D01*
X63955Y116464D01*
X63916Y116642D01*
X63861Y116819D01*
X63783Y116991D01*
X63778Y116997D01*
X63772Y117014D01*
X63761Y117036D01*
X63739Y117064D01*
X63717Y117102D01*
X63689Y117147D01*
X63617Y117247D01*
X63522Y117358D01*
X63411Y117469D01*
X63284Y117580D01*
X63134Y117674D01*
X63128Y117680D01*
X63112Y117685D01*
X63089Y117696D01*
X63062Y117713D01*
X63017Y117730D01*
X62973Y117746D01*
X62917Y117769D01*
X62856Y117791D01*
X62790Y117813D01*
X62717Y117835D01*
X62562Y117868D01*
X62384Y117896D01*
X62201Y117907D01*
D02*
G37*
G36*
X100618Y117841D02*
X97837D01*
Y117385D01*
X100107D01*
Y116215D01*
X97981D01*
Y115759D01*
X100107D01*
Y114455D01*
X97748D01*
Y114000D01*
X100618D01*
Y117841D01*
D02*
G37*
G36*
X84733D02*
X84222D01*
Y114000D01*
X84733D01*
Y117841D01*
D02*
G37*
G36*
X78616D02*
X75575D01*
Y117385D01*
X76840D01*
Y114000D01*
X77351D01*
Y117385D01*
X78616D01*
Y117841D01*
D02*
G37*
G36*
X71096D02*
X69519D01*
X69436Y117835D01*
X69342Y117830D01*
X69242Y117824D01*
X69147Y117813D01*
X69064Y117802D01*
X69053D01*
X69014Y117791D01*
X68964Y117780D01*
X68898Y117763D01*
X68826Y117735D01*
X68748Y117702D01*
X68665Y117663D01*
X68593Y117619D01*
X68581Y117613D01*
X68559Y117596D01*
X68526Y117563D01*
X68481Y117524D01*
X68432Y117474D01*
X68382Y117408D01*
X68326Y117335D01*
X68282Y117252D01*
X68276Y117241D01*
X68265Y117213D01*
X68243Y117164D01*
X68221Y117097D01*
X68204Y117019D01*
X68182Y116930D01*
X68171Y116831D01*
X68165Y116725D01*
Y116719D01*
Y116703D01*
Y116681D01*
X68171Y116642D01*
X68176Y116603D01*
X68182Y116553D01*
X68193Y116498D01*
X68204Y116436D01*
X68243Y116309D01*
X68265Y116242D01*
X68298Y116170D01*
X68337Y116098D01*
X68376Y116031D01*
X68426Y115965D01*
X68481Y115898D01*
X68487Y115893D01*
X68498Y115881D01*
X68515Y115865D01*
X68543Y115848D01*
X68576Y115820D01*
X68620Y115793D01*
X68676Y115759D01*
X68737Y115732D01*
X68809Y115698D01*
X68892Y115665D01*
X68981Y115637D01*
X69086Y115615D01*
X69197Y115593D01*
X69320Y115576D01*
X69458Y115565D01*
X69603Y115559D01*
X70585D01*
Y114000D01*
X71096D01*
Y117841D01*
D02*
G37*
G36*
X66272Y116786D02*
X65801D01*
Y114000D01*
X66272D01*
Y116786D01*
D02*
G37*
G36*
X47834Y114538D02*
X47296D01*
Y114000D01*
X47834D01*
Y114538D01*
D02*
G37*
G36*
X92023Y116847D02*
X91890D01*
X91829Y116842D01*
X91746Y116836D01*
X91657Y116825D01*
X91562Y116803D01*
X91462Y116780D01*
X91368Y116747D01*
X91363D01*
X91357Y116742D01*
X91329Y116731D01*
X91285Y116708D01*
X91229Y116681D01*
X91168Y116642D01*
X91107Y116597D01*
X91052Y116548D01*
X91002Y116492D01*
X90996Y116486D01*
X90985Y116464D01*
X90963Y116425D01*
X90935Y116381D01*
X90907Y116314D01*
X90880Y116242D01*
X90857Y116159D01*
X90835Y116065D01*
X91296Y116004D01*
Y116015D01*
X91302Y116037D01*
X91313Y116076D01*
X91329Y116126D01*
X91357Y116176D01*
X91390Y116231D01*
X91429Y116287D01*
X91485Y116337D01*
X91490Y116342D01*
X91512Y116353D01*
X91546Y116375D01*
X91596Y116398D01*
X91651Y116420D01*
X91723Y116442D01*
X91812Y116453D01*
X91906Y116459D01*
X91962D01*
X92017Y116453D01*
X92090Y116448D01*
X92162Y116431D01*
X92239Y116414D01*
X92312Y116386D01*
X92373Y116348D01*
X92378Y116342D01*
X92395Y116331D01*
X92417Y116309D01*
X92439Y116276D01*
X92467Y116242D01*
X92489Y116198D01*
X92506Y116148D01*
X92511Y116098D01*
Y116092D01*
Y116081D01*
X92506Y116065D01*
Y116042D01*
X92489Y115987D01*
X92456Y115931D01*
X92450Y115926D01*
X92445Y115920D01*
X92434Y115904D01*
X92412Y115887D01*
X92389Y115870D01*
X92356Y115848D01*
X92317Y115831D01*
X92273Y115809D01*
X92267D01*
X92256Y115804D01*
X92234Y115798D01*
X92195Y115781D01*
X92140Y115765D01*
X92067Y115748D01*
X92023Y115732D01*
X91973Y115720D01*
X91918Y115704D01*
X91856Y115687D01*
X91851D01*
X91834Y115682D01*
X91807Y115676D01*
X91773Y115665D01*
X91734Y115654D01*
X91685Y115643D01*
X91579Y115610D01*
X91462Y115576D01*
X91346Y115537D01*
X91240Y115498D01*
X91196Y115482D01*
X91157Y115465D01*
X91146Y115460D01*
X91124Y115449D01*
X91091Y115432D01*
X91041Y115404D01*
X90991Y115371D01*
X90941Y115326D01*
X90891Y115277D01*
X90846Y115221D01*
X90841Y115216D01*
X90830Y115193D01*
X90808Y115160D01*
X90785Y115110D01*
X90769Y115049D01*
X90746Y114982D01*
X90735Y114905D01*
X90730Y114816D01*
Y114805D01*
Y114777D01*
X90735Y114733D01*
X90746Y114672D01*
X90763Y114605D01*
X90791Y114533D01*
X90824Y114450D01*
X90869Y114372D01*
X90874Y114361D01*
X90896Y114339D01*
X90924Y114300D01*
X90969Y114255D01*
X91030Y114205D01*
X91096Y114150D01*
X91174Y114100D01*
X91268Y114050D01*
X91274D01*
X91279Y114044D01*
X91313Y114033D01*
X91368Y114017D01*
X91440Y113995D01*
X91529Y113972D01*
X91629Y113956D01*
X91734Y113944D01*
X91856Y113939D01*
X91906D01*
X91945Y113944D01*
X91990D01*
X92045Y113950D01*
X92101Y113956D01*
X92162Y113967D01*
X92295Y113995D01*
X92434Y114033D01*
X92567Y114089D01*
X92628Y114122D01*
X92684Y114161D01*
X92689Y114166D01*
X92695Y114172D01*
X92728Y114205D01*
X92778Y114255D01*
X92833Y114333D01*
X92894Y114427D01*
X92955Y114538D01*
X93005Y114677D01*
X93044Y114832D01*
X92578Y114905D01*
Y114899D01*
Y114894D01*
X92567Y114860D01*
X92556Y114805D01*
X92534Y114744D01*
X92506Y114677D01*
X92473Y114605D01*
X92423Y114533D01*
X92361Y114472D01*
X92351Y114466D01*
X92328Y114450D01*
X92284Y114427D01*
X92228Y114400D01*
X92156Y114372D01*
X92073Y114350D01*
X91973Y114333D01*
X91856Y114327D01*
X91801D01*
X91746Y114333D01*
X91673Y114344D01*
X91596Y114361D01*
X91512Y114383D01*
X91440Y114411D01*
X91374Y114455D01*
X91368Y114461D01*
X91346Y114477D01*
X91324Y114505D01*
X91290Y114544D01*
X91263Y114588D01*
X91235Y114644D01*
X91218Y114699D01*
X91213Y114766D01*
Y114771D01*
Y114794D01*
X91218Y114821D01*
X91229Y114860D01*
X91246Y114899D01*
X91274Y114938D01*
X91307Y114982D01*
X91357Y115016D01*
X91363Y115021D01*
X91379Y115027D01*
X91407Y115043D01*
X91451Y115060D01*
X91518Y115082D01*
X91557Y115099D01*
X91601Y115110D01*
X91651Y115127D01*
X91707Y115143D01*
X91768Y115160D01*
X91840Y115177D01*
X91845D01*
X91862Y115182D01*
X91890Y115188D01*
X91923Y115199D01*
X91967Y115210D01*
X92017Y115226D01*
X92123Y115254D01*
X92245Y115293D01*
X92361Y115326D01*
X92473Y115365D01*
X92523Y115387D01*
X92561Y115404D01*
X92572Y115410D01*
X92595Y115421D01*
X92628Y115443D01*
X92672Y115471D01*
X92722Y115510D01*
X92772Y115554D01*
X92822Y115604D01*
X92867Y115665D01*
X92872Y115671D01*
X92883Y115693D01*
X92900Y115732D01*
X92917Y115776D01*
X92933Y115831D01*
X92950Y115898D01*
X92961Y115965D01*
X92967Y116042D01*
Y116053D01*
Y116076D01*
X92961Y116109D01*
X92955Y116159D01*
X92944Y116209D01*
X92933Y116270D01*
X92911Y116325D01*
X92883Y116386D01*
X92878Y116392D01*
X92867Y116414D01*
X92850Y116442D01*
X92822Y116481D01*
X92789Y116520D01*
X92750Y116570D01*
X92706Y116614D01*
X92650Y116653D01*
X92645Y116658D01*
X92628Y116664D01*
X92606Y116681D01*
X92572Y116697D01*
X92528Y116719D01*
X92478Y116742D01*
X92417Y116764D01*
X92351Y116786D01*
X92339Y116792D01*
X92317Y116797D01*
X92278Y116808D01*
X92228Y116819D01*
X92167Y116831D01*
X92101Y116836D01*
X92023Y116847D01*
D02*
G37*
G36*
X80806D02*
X80750D01*
X80712Y116842D01*
X80662Y116836D01*
X80606Y116825D01*
X80545Y116814D01*
X80473Y116803D01*
X80323Y116753D01*
X80245Y116725D01*
X80168Y116686D01*
X80090Y116647D01*
X80012Y116592D01*
X79940Y116536D01*
X79868Y116470D01*
X79862Y116464D01*
X79851Y116453D01*
X79835Y116431D01*
X79812Y116403D01*
X79785Y116364D01*
X79751Y116314D01*
X79718Y116259D01*
X79685Y116198D01*
X79651Y116131D01*
X79618Y116048D01*
X79585Y115965D01*
X79557Y115870D01*
X79535Y115770D01*
X79518Y115665D01*
X79507Y115554D01*
X79502Y115432D01*
Y115426D01*
Y115410D01*
Y115382D01*
Y115343D01*
X79507Y115299D01*
X79513Y115243D01*
Y115188D01*
X79524Y115127D01*
X79540Y114988D01*
X79574Y114849D01*
X79613Y114710D01*
X79668Y114583D01*
Y114577D01*
X79674Y114572D01*
X79685Y114555D01*
X79696Y114533D01*
X79735Y114477D01*
X79785Y114411D01*
X79851Y114333D01*
X79935Y114255D01*
X80029Y114178D01*
X80140Y114105D01*
X80145D01*
X80151Y114100D01*
X80168Y114089D01*
X80195Y114078D01*
X80223Y114067D01*
X80256Y114056D01*
X80340Y114022D01*
X80434Y113995D01*
X80551Y113967D01*
X80673Y113944D01*
X80806Y113939D01*
X80861D01*
X80906Y113944D01*
X80956Y113950D01*
X81011Y113961D01*
X81078Y113972D01*
X81144Y113983D01*
X81294Y114028D01*
X81378Y114061D01*
X81455Y114094D01*
X81533Y114139D01*
X81611Y114189D01*
X81683Y114244D01*
X81755Y114311D01*
X81761Y114316D01*
X81772Y114327D01*
X81788Y114350D01*
X81810Y114383D01*
X81838Y114422D01*
X81866Y114466D01*
X81899Y114522D01*
X81932Y114588D01*
X81966Y114660D01*
X81999Y114744D01*
X82027Y114832D01*
X82055Y114927D01*
X82077Y115032D01*
X82094Y115143D01*
X82105Y115265D01*
X82110Y115393D01*
Y115404D01*
Y115426D01*
X82105Y115465D01*
Y115521D01*
X82099Y115582D01*
X82088Y115659D01*
X82077Y115737D01*
X82055Y115826D01*
X82032Y115915D01*
X82005Y116009D01*
X81971Y116109D01*
X81927Y116203D01*
X81883Y116292D01*
X81822Y116381D01*
X81761Y116464D01*
X81683Y116536D01*
X81677Y116542D01*
X81666Y116548D01*
X81644Y116564D01*
X81616Y116586D01*
X81583Y116609D01*
X81538Y116636D01*
X81494Y116664D01*
X81439Y116692D01*
X81378Y116719D01*
X81311Y116747D01*
X81161Y116797D01*
X80989Y116836D01*
X80900Y116842D01*
X80806Y116847D01*
D02*
G37*
G36*
X58660D02*
X58605D01*
X58566Y116842D01*
X58516Y116836D01*
X58460Y116825D01*
X58399Y116814D01*
X58327Y116803D01*
X58177Y116753D01*
X58100Y116725D01*
X58022Y116686D01*
X57944Y116647D01*
X57867Y116592D01*
X57794Y116536D01*
X57722Y116470D01*
X57717Y116464D01*
X57706Y116453D01*
X57689Y116431D01*
X57667Y116403D01*
X57639Y116364D01*
X57606Y116314D01*
X57572Y116259D01*
X57539Y116198D01*
X57506Y116131D01*
X57472Y116048D01*
X57439Y115965D01*
X57411Y115870D01*
X57389Y115770D01*
X57373Y115665D01*
X57362Y115554D01*
X57356Y115432D01*
Y115426D01*
Y115410D01*
Y115382D01*
Y115343D01*
X57362Y115299D01*
X57367Y115243D01*
Y115188D01*
X57378Y115127D01*
X57395Y114988D01*
X57428Y114849D01*
X57467Y114710D01*
X57522Y114583D01*
Y114577D01*
X57528Y114572D01*
X57539Y114555D01*
X57550Y114533D01*
X57589Y114477D01*
X57639Y114411D01*
X57706Y114333D01*
X57789Y114255D01*
X57883Y114178D01*
X57994Y114105D01*
X58000D01*
X58005Y114100D01*
X58022Y114089D01*
X58050Y114078D01*
X58078Y114067D01*
X58111Y114056D01*
X58194Y114022D01*
X58288Y113995D01*
X58405Y113967D01*
X58527Y113944D01*
X58660Y113939D01*
X58716D01*
X58760Y113944D01*
X58810Y113950D01*
X58866Y113961D01*
X58932Y113972D01*
X58999Y113983D01*
X59149Y114028D01*
X59232Y114061D01*
X59310Y114094D01*
X59387Y114139D01*
X59465Y114189D01*
X59537Y114244D01*
X59609Y114311D01*
X59615Y114316D01*
X59626Y114327D01*
X59643Y114350D01*
X59665Y114383D01*
X59693Y114422D01*
X59720Y114466D01*
X59754Y114522D01*
X59787Y114588D01*
X59820Y114660D01*
X59854Y114744D01*
X59881Y114832D01*
X59909Y114927D01*
X59931Y115032D01*
X59948Y115143D01*
X59959Y115265D01*
X59965Y115393D01*
Y115404D01*
Y115426D01*
X59959Y115465D01*
Y115521D01*
X59953Y115582D01*
X59942Y115659D01*
X59931Y115737D01*
X59909Y115826D01*
X59887Y115915D01*
X59859Y116009D01*
X59826Y116109D01*
X59781Y116203D01*
X59737Y116292D01*
X59676Y116381D01*
X59615Y116464D01*
X59537Y116536D01*
X59532Y116542D01*
X59521Y116548D01*
X59498Y116564D01*
X59470Y116586D01*
X59437Y116609D01*
X59393Y116636D01*
X59348Y116664D01*
X59293Y116692D01*
X59232Y116719D01*
X59165Y116747D01*
X59015Y116797D01*
X58843Y116836D01*
X58755Y116842D01*
X58660Y116847D01*
D02*
G37*
G36*
X43902Y117857D02*
X43852D01*
X43791Y117852D01*
X43719Y117841D01*
X43636Y117824D01*
X43547Y117802D01*
X43453Y117774D01*
X43364Y117730D01*
X43358D01*
X43353Y117724D01*
X43325Y117707D01*
X43280Y117680D01*
X43225Y117641D01*
X43164Y117585D01*
X43097Y117524D01*
X43036Y117452D01*
X42975Y117369D01*
X42970Y117358D01*
X42947Y117330D01*
X42925Y117280D01*
X42886Y117208D01*
X42853Y117125D01*
X42809Y117030D01*
X42770Y116919D01*
X42737Y116797D01*
Y116792D01*
X42731Y116780D01*
X42725Y116764D01*
X42720Y116736D01*
X42714Y116703D01*
X42709Y116664D01*
X42698Y116614D01*
X42692Y116559D01*
X42681Y116498D01*
X42676Y116431D01*
X42670Y116353D01*
X42659Y116276D01*
X42653Y116187D01*
Y116098D01*
X42648Y115998D01*
Y115893D01*
Y115887D01*
Y115865D01*
Y115826D01*
Y115781D01*
X42653Y115720D01*
Y115654D01*
X42659Y115582D01*
X42664Y115504D01*
X42681Y115326D01*
X42709Y115143D01*
X42742Y114966D01*
X42764Y114882D01*
X42792Y114799D01*
Y114794D01*
X42798Y114783D01*
X42809Y114760D01*
X42820Y114733D01*
X42831Y114694D01*
X42853Y114655D01*
X42897Y114560D01*
X42953Y114461D01*
X43025Y114350D01*
X43108Y114250D01*
X43208Y114155D01*
X43214D01*
X43219Y114144D01*
X43236Y114133D01*
X43258Y114122D01*
X43286Y114105D01*
X43314Y114083D01*
X43397Y114044D01*
X43497Y114005D01*
X43613Y113967D01*
X43752Y113944D01*
X43902Y113933D01*
X43957D01*
X43996Y113939D01*
X44041Y113944D01*
X44096Y113956D01*
X44157Y113967D01*
X44224Y113983D01*
X44291Y114005D01*
X44363Y114028D01*
X44435Y114061D01*
X44507Y114100D01*
X44579Y114144D01*
X44651Y114200D01*
X44718Y114261D01*
X44779Y114327D01*
X44785Y114333D01*
X44796Y114350D01*
X44812Y114377D01*
X44840Y114422D01*
X44868Y114472D01*
X44895Y114538D01*
X44934Y114616D01*
X44968Y114705D01*
X45001Y114805D01*
X45034Y114921D01*
X45068Y115049D01*
X45095Y115193D01*
X45123Y115349D01*
X45140Y115515D01*
X45151Y115698D01*
X45156Y115893D01*
Y115898D01*
Y115920D01*
Y115959D01*
Y116004D01*
X45151Y116065D01*
Y116131D01*
X45145Y116203D01*
X45140Y116287D01*
X45123Y116459D01*
X45095Y116642D01*
X45062Y116825D01*
X45040Y116908D01*
X45018Y116991D01*
Y116997D01*
X45012Y117008D01*
X45001Y117030D01*
X44990Y117058D01*
X44979Y117097D01*
X44956Y117136D01*
X44912Y117230D01*
X44857Y117330D01*
X44785Y117435D01*
X44701Y117541D01*
X44601Y117630D01*
X44596D01*
X44590Y117641D01*
X44574Y117652D01*
X44551Y117663D01*
X44524Y117685D01*
X44490Y117702D01*
X44407Y117746D01*
X44307Y117785D01*
X44191Y117824D01*
X44052Y117846D01*
X43902Y117857D01*
D02*
G37*
%LPD*%
G36*
X94926Y115393D02*
X94942Y115387D01*
X94965Y115382D01*
X94992Y115371D01*
X95026Y115360D01*
X95065Y115349D01*
X95109Y115338D01*
X95159Y115321D01*
X95220Y115310D01*
X95281Y115293D01*
X95353Y115277D01*
X95431Y115260D01*
X95509Y115243D01*
X95597Y115232D01*
X95692Y115216D01*
X95703D01*
X95736Y115210D01*
X95792Y115199D01*
X95853Y115188D01*
X95919Y115177D01*
X95986Y115160D01*
X96047Y115143D01*
X96102Y115121D01*
X96108D01*
X96125Y115110D01*
X96147Y115099D01*
X96169Y115082D01*
X96236Y115038D01*
X96291Y114971D01*
Y114966D01*
X96302Y114955D01*
X96308Y114932D01*
X96319Y114905D01*
X96330Y114871D01*
X96341Y114838D01*
X96347Y114794D01*
X96352Y114749D01*
Y114744D01*
Y114716D01*
X96347Y114683D01*
X96336Y114638D01*
X96319Y114588D01*
X96291Y114538D01*
X96258Y114483D01*
X96213Y114433D01*
X96208Y114427D01*
X96186Y114416D01*
X96152Y114394D01*
X96108Y114372D01*
X96047Y114350D01*
X95975Y114327D01*
X95891Y114316D01*
X95792Y114311D01*
X95747D01*
X95692Y114316D01*
X95631Y114327D01*
X95553Y114339D01*
X95475Y114361D01*
X95392Y114389D01*
X95309Y114427D01*
X95298Y114433D01*
X95275Y114450D01*
X95237Y114477D01*
X95192Y114516D01*
X95142Y114560D01*
X95087Y114616D01*
X95042Y114683D01*
X94998Y114755D01*
X94992Y114760D01*
X94987Y114783D01*
X94976Y114821D01*
X94959Y114871D01*
X94942Y114938D01*
X94931Y115016D01*
X94926Y115110D01*
X94920Y115221D01*
X94915Y115399D01*
X94920D01*
X94926Y115393D01*
D02*
G37*
G36*
X70585Y116015D02*
X69553D01*
X69514Y116020D01*
X69475D01*
X69431Y116026D01*
X69325Y116037D01*
X69209Y116059D01*
X69092Y116092D01*
X68987Y116137D01*
X68937Y116165D01*
X68898Y116198D01*
X68887Y116209D01*
X68865Y116231D01*
X68831Y116276D01*
X68792Y116331D01*
X68753Y116403D01*
X68720Y116492D01*
X68698Y116592D01*
X68687Y116708D01*
Y116714D01*
Y116719D01*
Y116747D01*
X68692Y116797D01*
X68704Y116853D01*
X68715Y116914D01*
X68737Y116986D01*
X68770Y117052D01*
X68809Y117119D01*
X68814Y117125D01*
X68831Y117147D01*
X68859Y117175D01*
X68892Y117213D01*
X68942Y117252D01*
X68998Y117286D01*
X69059Y117319D01*
X69131Y117347D01*
X69136D01*
X69159Y117352D01*
X69192Y117358D01*
X69236Y117369D01*
X69303Y117374D01*
X69386Y117380D01*
X69486Y117385D01*
X70585D01*
Y116015D01*
D02*
G37*
G36*
X80867Y116453D02*
X80928Y116448D01*
X81011Y116425D01*
X81106Y116392D01*
X81205Y116348D01*
X81300Y116281D01*
X81350Y116237D01*
X81394Y116192D01*
Y116187D01*
X81405Y116181D01*
X81416Y116165D01*
X81433Y116142D01*
X81450Y116115D01*
X81466Y116081D01*
X81489Y116037D01*
X81511Y115992D01*
X81533Y115937D01*
X81555Y115881D01*
X81572Y115815D01*
X81588Y115743D01*
X81605Y115665D01*
X81616Y115582D01*
X81622Y115487D01*
X81627Y115393D01*
Y115387D01*
Y115371D01*
Y115343D01*
X81622Y115304D01*
Y115260D01*
X81616Y115210D01*
X81599Y115093D01*
X81572Y114960D01*
X81527Y114827D01*
X81472Y114699D01*
X81433Y114644D01*
X81394Y114588D01*
X81389D01*
X81383Y114577D01*
X81350Y114550D01*
X81300Y114505D01*
X81233Y114461D01*
X81150Y114411D01*
X81050Y114366D01*
X80933Y114339D01*
X80872Y114333D01*
X80806Y114327D01*
X80773D01*
X80745Y114333D01*
X80684Y114344D01*
X80601Y114361D01*
X80512Y114394D01*
X80412Y114438D01*
X80317Y114505D01*
X80268Y114550D01*
X80223Y114594D01*
X80218Y114599D01*
X80212Y114605D01*
X80201Y114622D01*
X80184Y114644D01*
X80168Y114672D01*
X80145Y114705D01*
X80123Y114749D01*
X80101Y114794D01*
X80079Y114849D01*
X80062Y114910D01*
X80040Y114977D01*
X80023Y115049D01*
X80007Y115132D01*
X79996Y115216D01*
X79984Y115310D01*
Y115410D01*
Y115415D01*
Y115432D01*
Y115460D01*
X79990Y115493D01*
Y115537D01*
X79996Y115587D01*
X80012Y115704D01*
X80040Y115826D01*
X80084Y115959D01*
X80145Y116081D01*
X80179Y116142D01*
X80223Y116192D01*
Y116198D01*
X80234Y116203D01*
X80268Y116237D01*
X80317Y116276D01*
X80384Y116325D01*
X80467Y116375D01*
X80567Y116420D01*
X80678Y116448D01*
X80739Y116453D01*
X80806Y116459D01*
X80839D01*
X80867Y116453D01*
D02*
G37*
G36*
X58721D02*
X58782Y116448D01*
X58866Y116425D01*
X58960Y116392D01*
X59060Y116348D01*
X59154Y116281D01*
X59204Y116237D01*
X59249Y116192D01*
Y116187D01*
X59260Y116181D01*
X59271Y116165D01*
X59287Y116142D01*
X59304Y116115D01*
X59321Y116081D01*
X59343Y116037D01*
X59365Y115992D01*
X59387Y115937D01*
X59409Y115881D01*
X59426Y115815D01*
X59443Y115743D01*
X59459Y115665D01*
X59470Y115582D01*
X59476Y115487D01*
X59482Y115393D01*
Y115387D01*
Y115371D01*
Y115343D01*
X59476Y115304D01*
Y115260D01*
X59470Y115210D01*
X59454Y115093D01*
X59426Y114960D01*
X59382Y114827D01*
X59326Y114699D01*
X59287Y114644D01*
X59249Y114588D01*
X59243D01*
X59237Y114577D01*
X59204Y114550D01*
X59154Y114505D01*
X59088Y114461D01*
X59004Y114411D01*
X58904Y114366D01*
X58788Y114339D01*
X58727Y114333D01*
X58660Y114327D01*
X58627D01*
X58599Y114333D01*
X58538Y114344D01*
X58455Y114361D01*
X58366Y114394D01*
X58266Y114438D01*
X58172Y114505D01*
X58122Y114550D01*
X58078Y114594D01*
X58072Y114599D01*
X58066Y114605D01*
X58055Y114622D01*
X58039Y114644D01*
X58022Y114672D01*
X58000Y114705D01*
X57978Y114749D01*
X57955Y114794D01*
X57933Y114849D01*
X57916Y114910D01*
X57894Y114977D01*
X57878Y115049D01*
X57861Y115132D01*
X57850Y115216D01*
X57839Y115310D01*
Y115410D01*
Y115415D01*
Y115432D01*
Y115460D01*
X57844Y115493D01*
Y115537D01*
X57850Y115587D01*
X57867Y115704D01*
X57894Y115826D01*
X57939Y115959D01*
X58000Y116081D01*
X58033Y116142D01*
X58078Y116192D01*
Y116198D01*
X58089Y116203D01*
X58122Y116237D01*
X58172Y116276D01*
X58238Y116325D01*
X58322Y116375D01*
X58422Y116420D01*
X58533Y116448D01*
X58594Y116453D01*
X58660Y116459D01*
X58693D01*
X58721Y116453D01*
D02*
G37*
G36*
X43963Y117463D02*
X44024Y117452D01*
X44096Y117435D01*
X44179Y117402D01*
X44268Y117352D01*
X44313Y117319D01*
X44357Y117286D01*
X44396Y117241D01*
X44435Y117191D01*
Y117186D01*
X44446Y117175D01*
X44457Y117152D01*
X44474Y117125D01*
X44490Y117080D01*
X44513Y117030D01*
X44529Y116969D01*
X44551Y116897D01*
X44574Y116814D01*
X44596Y116719D01*
X44618Y116614D01*
X44635Y116498D01*
X44651Y116364D01*
X44662Y116220D01*
X44668Y116065D01*
X44673Y115893D01*
Y115881D01*
Y115854D01*
Y115804D01*
X44668Y115737D01*
Y115665D01*
X44662Y115576D01*
X44657Y115482D01*
X44646Y115382D01*
X44618Y115165D01*
X44601Y115060D01*
X44579Y114960D01*
X44557Y114866D01*
X44524Y114777D01*
X44490Y114699D01*
X44451Y114633D01*
Y114627D01*
X44440Y114622D01*
X44413Y114583D01*
X44363Y114533D01*
X44302Y114477D01*
X44218Y114422D01*
X44124Y114372D01*
X44019Y114333D01*
X43963Y114327D01*
X43902Y114322D01*
X43869D01*
X43846Y114327D01*
X43791Y114339D01*
X43713Y114361D01*
X43630Y114400D01*
X43536Y114455D01*
X43491Y114488D01*
X43447Y114533D01*
X43402Y114577D01*
X43358Y114633D01*
Y114638D01*
X43347Y114649D01*
X43336Y114666D01*
X43325Y114694D01*
X43303Y114733D01*
X43286Y114783D01*
X43264Y114838D01*
X43242Y114905D01*
X43225Y114988D01*
X43203Y115077D01*
X43181Y115182D01*
X43164Y115293D01*
X43153Y115426D01*
X43142Y115565D01*
X43131Y115720D01*
Y115893D01*
Y115898D01*
Y115904D01*
Y115931D01*
Y115981D01*
X43136Y116048D01*
Y116120D01*
X43142Y116209D01*
X43147Y116303D01*
X43158Y116409D01*
X43186Y116620D01*
X43203Y116725D01*
X43225Y116825D01*
X43247Y116919D01*
X43280Y117008D01*
X43314Y117086D01*
X43353Y117152D01*
Y117158D01*
X43364Y117164D01*
X43375Y117180D01*
X43391Y117202D01*
X43441Y117252D01*
X43502Y117313D01*
X43586Y117369D01*
X43680Y117419D01*
X43730Y117441D01*
X43786Y117458D01*
X43846Y117463D01*
X43908Y117469D01*
X43941D01*
X43963Y117463D01*
D02*
G37*
D11*
X80339Y45551D02*
G03*
X80339Y45551I-492J0D01*
G01*
X84405Y78913D02*
G03*
X84405Y78913I-492J0D01*
G01*
X60035Y92587D02*
G03*
X60035Y92587I-492J0D01*
G01*
D12*
X40894Y5083D02*
G03*
X40106Y5083I-394J0D01*
G01*
D02*
G03*
X40894Y5083I394J0D01*
G01*
X39315Y51457D02*
X78685D01*
X39315Y58543D02*
X78685D01*
Y51457D02*
Y58543D01*
X39315Y51457D02*
Y58543D01*
X90213Y88756D02*
Y91905D01*
X88638D02*
X90213D01*
Y80094D02*
Y83244D01*
X88638Y80094D02*
X90213D01*
X53244Y79594D02*
Y82744D01*
Y79594D02*
X54819D01*
X53244Y88256D02*
Y91405D01*
X54819D01*
D13*
X40925Y96009D02*
Y96991D01*
X44075Y96009D02*
Y96991D01*
X37075Y96009D02*
Y96991D01*
X33925Y96009D02*
Y96991D01*
X43575Y81510D02*
Y82490D01*
X40425Y81510D02*
Y82490D01*
X84009Y100425D02*
X84991D01*
X84009Y103575D02*
X84991D01*
X126009Y71575D02*
X126991D01*
X126009Y68425D02*
X126991D01*
X126009Y82075D02*
X126991D01*
X126009Y78925D02*
X126991D01*
X83622Y71913D02*
Y73087D01*
X86378Y71900D02*
Y73100D01*
X89122Y71413D02*
Y72587D01*
X91878Y71400D02*
Y72600D01*
X73413Y32878D02*
X74587D01*
X73400Y30122D02*
X74600D01*
X69075Y85009D02*
Y85991D01*
X65925Y85009D02*
Y85991D01*
X77075Y85009D02*
Y85991D01*
X73925Y85009D02*
Y85991D01*
D14*
X0Y0D02*
X148000D01*
Y154500D01*
X0D02*
X148000D01*
X0Y0D02*
Y154500D01*
D15*
X25551Y7362D02*
X26732D01*
X25551Y2638D02*
X26732D01*
X43453Y12563D02*
Y20437D01*
X37547Y12563D02*
Y20437D01*
X32599Y14074D02*
Y10926D01*
X30500D01*
X29451D02*
X28401D01*
X28926D01*
Y14074D01*
X29451Y13550D01*
X86188Y55156D02*
Y52532D01*
X85663Y52007D01*
X84614D01*
X84089Y52532D01*
Y55156D01*
X83039Y54631D02*
X82515Y55156D01*
X81465D01*
X80940Y54631D01*
Y54106D01*
X81465Y53582D01*
X81990D01*
X81465D01*
X80940Y53057D01*
Y52532D01*
X81465Y52007D01*
X82515D01*
X83039Y52532D01*
X141500Y30649D02*
Y28550D01*
X140451Y27500D01*
X139401Y28550D01*
Y30649D01*
X136252D02*
X138351D01*
Y27500D01*
X136252D01*
X138351Y29074D02*
X137302D01*
X135203Y27500D02*
Y30649D01*
X133628D01*
X133104Y30124D01*
Y29074D01*
X133628Y28550D01*
X135203D01*
X134153D02*
X133104Y27500D01*
X128906D02*
X127856D01*
X128381D01*
Y30649D01*
X128906Y30124D01*
X126282Y27500D02*
Y28025D01*
X125757D01*
Y27500D01*
X126282D01*
X123658Y30124D02*
X123133Y30649D01*
X122084D01*
X121559Y30124D01*
Y28025D01*
X122084Y27500D01*
X123133D01*
X123658Y28025D01*
Y30124D01*
X139401Y39649D02*
X141500D01*
Y36500D01*
X139401D01*
X141500Y38074D02*
X140451D01*
X137827Y38599D02*
X136777D01*
X136252Y38074D01*
Y36500D01*
X137827D01*
X138351Y37025D01*
X137827Y37549D01*
X136252D01*
X135203Y36500D02*
X133628D01*
X133104Y37025D01*
X133628Y37549D01*
X134678D01*
X135203Y38074D01*
X134678Y38599D01*
X133104D01*
X132054D02*
Y37025D01*
X131529Y36500D01*
X129955D01*
Y35975D01*
X130480Y35451D01*
X131005D01*
X129955Y36500D02*
Y38599D01*
X128906Y39649D02*
X127856D01*
X128381D01*
Y36500D01*
X128906D01*
X127856D01*
X125757D02*
X124707D01*
X124183Y37025D01*
Y38074D01*
X124707Y38599D01*
X125757D01*
X126282Y38074D01*
Y37025D01*
X125757Y36500D01*
X123133Y39649D02*
X121034D01*
X122084D01*
Y36500D01*
X116836D02*
Y39649D01*
X115262D01*
X114737Y39124D01*
Y38074D01*
X115262Y37549D01*
X116836D01*
X113687Y36500D02*
X112638D01*
X113163D01*
Y38599D01*
X113687D01*
X108965Y39124D02*
X109489Y39649D01*
X110539D01*
X111064Y39124D01*
Y37025D01*
X110539Y36500D01*
X109489D01*
X108965Y37025D01*
X107390Y36500D02*
X106341D01*
X105816Y37025D01*
Y38074D01*
X106341Y38599D01*
X107390D01*
X107915Y38074D01*
Y37025D01*
X107390Y36500D01*
X49436Y104426D02*
Y107574D01*
X47861D01*
X47337Y107050D01*
Y106000D01*
X47861Y105475D01*
X49436D01*
X48386D02*
X47337Y104426D01*
X46287D02*
X45238D01*
X45762D01*
Y107574D01*
X46287Y107050D01*
X41564Y107574D02*
X43663D01*
Y106000D01*
X42614Y106525D01*
X42089D01*
X41564Y106000D01*
Y104950D01*
X42089Y104426D01*
X43139D01*
X43663Y104950D01*
X38436Y104426D02*
Y107574D01*
X36861D01*
X36337Y107050D01*
Y106000D01*
X36861Y105475D01*
X38436D01*
X37386D02*
X36337Y104426D01*
X35287D02*
X34238D01*
X34762D01*
Y107574D01*
X35287Y107050D01*
X31089Y104426D02*
Y107574D01*
X32663Y106000D01*
X30564D01*
X45436Y70426D02*
Y73574D01*
X43861D01*
X43337Y73049D01*
Y72000D01*
X43861Y71475D01*
X45436D01*
X44386D02*
X43337Y70426D01*
X42287D02*
X41238D01*
X41762D01*
Y73574D01*
X42287Y73049D01*
X39663D02*
X39138Y73574D01*
X38089D01*
X37564Y73049D01*
Y72525D01*
X38089Y72000D01*
X38614D01*
X38089D01*
X37564Y71475D01*
Y70951D01*
X38089Y70426D01*
X39138D01*
X39663Y70951D01*
X99436Y100426D02*
Y103574D01*
X97861D01*
X97337Y103050D01*
Y102000D01*
X97861Y101475D01*
X99436D01*
X98386D02*
X97337Y100426D01*
X96287D02*
X95238D01*
X95762D01*
Y103574D01*
X96287Y103050D01*
X91564Y100426D02*
X93663D01*
X91564Y102525D01*
Y103050D01*
X92089Y103574D01*
X93138D01*
X93663Y103050D01*
X78124Y92926D02*
Y96074D01*
X76550D01*
X76025Y95549D01*
Y94500D01*
X76550Y93975D01*
X78124D01*
X77074D02*
X76025Y92926D01*
X74975Y93450D02*
X74450Y92926D01*
X73401D01*
X72876Y93450D01*
Y95549D01*
X73401Y96074D01*
X74450D01*
X74975Y95549D01*
Y95025D01*
X74450Y94500D01*
X72876D01*
X70124Y93426D02*
Y96574D01*
X68550D01*
X68025Y96049D01*
Y95000D01*
X68550Y94475D01*
X70124D01*
X69074D02*
X68025Y93426D01*
X66975Y96049D02*
X66451Y96574D01*
X65401D01*
X64876Y96049D01*
Y95525D01*
X65401Y95000D01*
X64876Y94475D01*
Y93950D01*
X65401Y93426D01*
X66451D01*
X66975Y93950D01*
Y94475D01*
X66451Y95000D01*
X66975Y95525D01*
Y96049D01*
X66451Y95000D02*
X65401D01*
X119624Y67926D02*
Y71074D01*
X118050D01*
X117525Y70549D01*
Y69500D01*
X118050Y68975D01*
X119624D01*
X118574D02*
X117525Y67926D01*
X114901D02*
Y71074D01*
X116475Y69500D01*
X114376D01*
X119624Y78926D02*
Y82074D01*
X118050D01*
X117525Y81550D01*
Y80500D01*
X118050Y79975D01*
X119624D01*
X118574D02*
X117525Y78926D01*
X116475Y81550D02*
X115951Y82074D01*
X114901D01*
X114376Y81550D01*
Y81025D01*
X114901Y80500D01*
X115426D01*
X114901D01*
X114376Y79975D01*
Y79451D01*
X114901Y78926D01*
X115951D01*
X116475Y79451D01*
X95525Y90951D02*
Y93050D01*
X96049Y93574D01*
X97099D01*
X97624Y93050D01*
Y90951D01*
X97099Y90426D01*
X96049D01*
X96574Y91475D02*
X95525Y90426D01*
X96049D02*
X95525Y90951D01*
X92376Y90426D02*
X94475D01*
X92376Y92525D01*
Y93050D01*
X92901Y93574D01*
X93950D01*
X94475Y93050D01*
X49500Y93950D02*
Y96049D01*
X50025Y96574D01*
X51074D01*
X51599Y96049D01*
Y93950D01*
X51074Y93426D01*
X50025D01*
X50550Y94475D02*
X49500Y93426D01*
X50025D02*
X49500Y93950D01*
X48450Y93426D02*
X47401D01*
X47926D01*
Y96574D01*
X48450Y96049D01*
X43099Y33574D02*
Y30426D01*
X41525D01*
X41000Y30950D01*
Y33049D01*
X41525Y33574D01*
X43099D01*
X39950Y30426D02*
X38901D01*
X39426D01*
Y33574D01*
X39950Y33049D01*
X85525Y32550D02*
X86049Y33074D01*
X87099D01*
X87624Y32550D01*
Y30450D01*
X87099Y29926D01*
X86049D01*
X85525Y30450D01*
X84475Y32550D02*
X83951Y33074D01*
X82901D01*
X82376Y32550D01*
Y32025D01*
X82901Y31500D01*
X82376Y30975D01*
Y30450D01*
X82901Y29926D01*
X83951D01*
X84475Y30450D01*
Y30975D01*
X83951Y31500D01*
X84475Y32025D01*
Y32550D01*
X83951Y31500D02*
X82901D01*
X94025Y64549D02*
X94550Y65074D01*
X95599D01*
X96124Y64549D01*
Y62450D01*
X95599Y61926D01*
X94550D01*
X94025Y62450D01*
X92975Y65074D02*
X90876D01*
Y64549D01*
X92975Y62450D01*
Y61926D01*
X86525Y64549D02*
X87050Y65074D01*
X88099D01*
X88624Y64549D01*
Y62450D01*
X88099Y61926D01*
X87050D01*
X86525Y62450D01*
X83376Y65074D02*
X84426Y64549D01*
X85475Y63500D01*
Y62450D01*
X84951Y61926D01*
X83901D01*
X83376Y62450D01*
Y62975D01*
X83901Y63500D01*
X85475D01*
M02*
